<svg width="20" height="20" viewBox="0 0 20 20" fill="none" xmlns="http://www.w3.org/2000/svg">
<path d="M15 18.3335L12.9833 18.3335C11.6667 18.3335 10.8333 17.5001 10.8333 16.1835L10.8333 13.3335L16.6583 13.3335C17.5833 13.3335 18.3333 14.0918 18.3333 15.0168C18.325 15.9252 17.9583 16.7585 17.3583 17.3585C16.75 17.9585 15.9167 18.3335 15 18.3335Z" stroke="#292D32" stroke-miterlimit="10" stroke-linecap="round" stroke-linejoin="round"/>
<path d="M14.1667 1.6665L2.5 1.6665C1.80834 1.6665 1.41667 2.44982 1.83334 2.99982L2.9 4.42483C3.15 4.75817 3.11667 5.22484 2.81667 5.52484L1.425 6.90815C1.1 7.23315 1.1 7.76652 1.425 8.09152L2.825 9.49152C3.11667 9.78318 3.15 10.2498 2.9 10.5748L1.83334 11.9999C1.425 12.5499 1.81667 13.3332 2.5 13.3332L16.6667 13.3332C17.5833 13.3332 18.3333 14.0832 18.3333 14.9998L18.3333 5.83317L18.3333 4.99984C18.3333 2.49984 16.8417 1.6665 15 1.6665L14.1667 1.6665Z" stroke="#292D32" stroke-miterlimit="10" stroke-linecap="round" stroke-linejoin="round"/>
</svg>
