<svg width="568" height="386" viewBox="0 0 568 386" fill="none" xmlns="http://www.w3.org/2000/svg">
<rect width="568" height="386" rx="8" fill="white"/>
<path d="M20.6088 24.04V32.68C20.6088 33.6267 20.8554 34.3533 21.3488 34.86C21.8421 35.3533 22.5354 35.6 23.4288 35.6C24.3354 35.6 25.0354 35.3533 25.5288 34.86C26.0221 34.3533 26.2688 33.6267 26.2688 32.68V24.04H29.0888V32.66C29.0888 33.8467 28.8288 34.8533 28.3088 35.68C27.8021 36.4933 27.1154 37.1067 26.2488 37.52C25.3954 37.9333 24.4421 38.14 23.3888 38.14C22.3488 38.14 21.4021 37.9333 20.5488 37.52C19.7088 37.1067 19.0421 36.4933 18.5488 35.68C18.0554 34.8533 17.8088 33.8467 17.8088 32.66V24.04H20.6088ZM36.0341 38.18C35.1274 38.18 34.3141 38.02 33.5941 37.7C32.8741 37.3667 32.3007 36.92 31.8741 36.36C31.4607 35.8 31.2341 35.18 31.1941 34.5H34.0141C34.0674 34.9267 34.2741 35.28 34.6341 35.56C35.0074 35.84 35.4674 35.98 36.0141 35.98C36.5474 35.98 36.9607 35.8733 37.2541 35.66C37.5607 35.4467 37.7141 35.1733 37.7141 34.84C37.7141 34.48 37.5274 34.2133 37.1541 34.04C36.7941 33.8533 36.2141 33.6533 35.4141 33.44C34.5874 33.24 33.9074 33.0333 33.3741 32.82C32.8541 32.6067 32.4007 32.28 32.0141 31.84C31.6407 31.4 31.4541 30.8067 31.4541 30.06C31.4541 29.4467 31.6274 28.8867 31.9741 28.38C32.3341 27.8733 32.8407 27.4733 33.4941 27.18C34.1607 26.8867 34.9407 26.74 35.8341 26.74C37.1541 26.74 38.2074 27.0733 38.9941 27.74C39.7807 28.3933 40.2141 29.28 40.2941 30.4H37.6141C37.5741 29.96 37.3874 29.6133 37.0541 29.36C36.7341 29.0933 36.3007 28.96 35.7541 28.96C35.2474 28.96 34.8541 29.0533 34.5741 29.24C34.3074 29.4267 34.1741 29.6867 34.1741 30.02C34.1741 30.3933 34.3607 30.68 34.7341 30.88C35.1074 31.0667 35.6874 31.26 36.4741 31.46C37.2741 31.66 37.9341 31.8667 38.4541 32.08C38.9741 32.2933 39.4207 32.6267 39.7941 33.08C40.1807 33.52 40.3807 34.1067 40.3941 34.84C40.3941 35.48 40.2141 36.0533 39.8541 36.56C39.5074 37.0667 39.0007 37.4667 38.3341 37.76C37.6807 38.04 36.9141 38.18 36.0341 38.18ZM52.9925 32.22C52.9925 32.62 52.9658 32.98 52.9125 33.3H44.8125C44.8792 34.1 45.1592 34.7267 45.6525 35.18C46.1458 35.6333 46.7525 35.86 47.4725 35.86C48.5125 35.86 49.2525 35.4133 49.6925 34.52H52.7125C52.3925 35.5867 51.7792 36.4667 50.8725 37.16C49.9658 37.84 48.8525 38.18 47.5325 38.18C46.4658 38.18 45.5058 37.9467 44.6525 37.48C43.8125 37 43.1525 36.3267 42.6725 35.46C42.2058 34.5933 41.9725 33.5933 41.9725 32.46C41.9725 31.3133 42.2058 30.3067 42.6725 29.44C43.1392 28.5733 43.7925 27.9067 44.6325 27.44C45.4725 26.9733 46.4392 26.74 47.5325 26.74C48.5858 26.74 49.5258 26.9667 50.3525 27.42C51.1925 27.8733 51.8392 28.52 52.2925 29.36C52.7592 30.1867 52.9925 31.14 52.9925 32.22ZM50.0925 31.42C50.0792 30.7 49.8192 30.1267 49.3125 29.7C48.8058 29.26 48.1858 29.04 47.4525 29.04C46.7592 29.04 46.1725 29.2533 45.6925 29.68C45.2258 30.0933 44.9392 30.6733 44.8325 31.42H50.0925ZM57.8363 28.64C58.1963 28.0533 58.6629 27.5933 59.2363 27.26C59.8229 26.9267 60.4896 26.76 61.2363 26.76V29.7H60.4963C59.6163 29.7 58.9496 29.9067 58.4963 30.32C58.0563 30.7333 57.8363 31.4533 57.8363 32.48V38H55.0363V26.92H57.8363V28.64ZM75.0878 38L72.0078 32.56H70.6878V38H67.8878V24.04H73.1278C74.2078 24.04 75.1278 24.2333 75.8878 24.62C76.6478 24.9933 77.2145 25.5067 77.5878 26.16C77.9745 26.8 78.1678 27.52 78.1678 28.32C78.1678 29.24 77.9011 30.0733 77.3678 30.82C76.8345 31.5533 76.0411 32.06 74.9878 32.34L78.3278 38H75.0878ZM70.6878 30.46H73.0278C73.7878 30.46 74.3545 30.28 74.7278 29.92C75.1011 29.5467 75.2878 29.0333 75.2878 28.38C75.2878 27.74 75.1011 27.2467 74.7278 26.9C74.3545 26.54 73.7878 26.36 73.0278 26.36H70.6878V30.46ZM91.0003 32.22C91.0003 32.62 90.9736 32.98 90.9203 33.3H82.8203C82.887 34.1 83.167 34.7267 83.6603 35.18C84.1536 35.6333 84.7603 35.86 85.4803 35.86C86.5203 35.86 87.2603 35.4133 87.7003 34.52H90.7203C90.4003 35.5867 89.787 36.4667 88.8803 37.16C87.9736 37.84 86.8603 38.18 85.5403 38.18C84.4736 38.18 83.5136 37.9467 82.6603 37.48C81.8203 37 81.1603 36.3267 80.6803 35.46C80.2136 34.5933 79.9803 33.5933 79.9803 32.46C79.9803 31.3133 80.2136 30.3067 80.6803 29.44C81.147 28.5733 81.8003 27.9067 82.6403 27.44C83.4803 26.9733 84.447 26.74 85.5403 26.74C86.5936 26.74 87.5336 26.9667 88.3603 27.42C89.2003 27.8733 89.847 28.52 90.3003 29.36C90.767 30.1867 91.0003 31.14 91.0003 32.22ZM88.1003 31.42C88.087 30.7 87.827 30.1267 87.3203 29.7C86.8136 29.26 86.1936 29.04 85.4603 29.04C84.767 29.04 84.1803 29.2533 83.7003 29.68C83.2336 30.0933 82.947 30.6733 82.8403 31.42H88.1003ZM97.3841 26.74C98.2107 26.74 98.9374 26.9067 99.5641 27.24C100.191 27.56 100.684 27.98 101.044 28.5V26.92H103.864V38.08C103.864 39.1067 103.657 40.02 103.244 40.82C102.831 41.6333 102.211 42.2733 101.384 42.74C100.557 43.22 99.5574 43.46 98.3841 43.46C96.8107 43.46 95.5174 43.0933 94.5041 42.36C93.5041 41.6267 92.9374 40.6267 92.8041 39.36H95.5841C95.7307 39.8667 96.0441 40.2667 96.5241 40.56C97.0174 40.8667 97.6107 41.02 98.3041 41.02C99.1174 41.02 99.7774 40.7733 100.284 40.28C100.791 39.8 101.044 39.0667 101.044 38.08V36.36C100.684 36.88 100.184 37.3133 99.5441 37.66C98.9174 38.0067 98.1974 38.18 97.3841 38.18C96.4507 38.18 95.5974 37.94 94.8241 37.46C94.0507 36.98 93.4374 36.3067 92.9841 35.44C92.5441 34.56 92.3241 33.5533 92.3241 32.42C92.3241 31.3 92.5441 30.3067 92.9841 29.44C93.4374 28.5733 94.0441 27.9067 94.8041 27.44C95.5774 26.9733 96.4374 26.74 97.3841 26.74ZM101.044 32.46C101.044 31.78 100.911 31.2 100.644 30.72C100.377 30.2267 100.017 29.8533 99.5641 29.6C99.1107 29.3333 98.6241 29.2 98.1041 29.2C97.5841 29.2 97.1041 29.3267 96.6641 29.58C96.2241 29.8333 95.8641 30.2067 95.5841 30.7C95.3174 31.18 95.1841 31.7533 95.1841 32.42C95.1841 33.0867 95.3174 33.6733 95.5841 34.18C95.8641 34.6733 96.2241 35.0533 96.6641 35.32C97.1174 35.5867 97.5974 35.72 98.1041 35.72C98.6241 35.72 99.1107 35.5933 99.5641 35.34C100.017 35.0733 100.377 34.7 100.644 34.22C100.911 33.7267 101.044 33.14 101.044 32.46ZM108.019 25.6C107.525 25.6 107.112 25.4467 106.779 25.14C106.459 24.82 106.299 24.4267 106.299 23.96C106.299 23.4933 106.459 23.1067 106.779 22.8C107.112 22.48 107.525 22.32 108.019 22.32C108.512 22.32 108.919 22.48 109.239 22.8C109.572 23.1067 109.739 23.4933 109.739 23.96C109.739 24.4267 109.572 24.82 109.239 25.14C108.919 25.4467 108.512 25.6 108.019 25.6ZM109.399 26.92V38H106.599V26.92H109.399ZM116.405 38.18C115.498 38.18 114.685 38.02 113.965 37.7C113.245 37.3667 112.672 36.92 112.245 36.36C111.832 35.8 111.605 35.18 111.565 34.5H114.385C114.438 34.9267 114.645 35.28 115.005 35.56C115.378 35.84 115.838 35.98 116.385 35.98C116.918 35.98 117.332 35.8733 117.625 35.66C117.932 35.4467 118.085 35.1733 118.085 34.84C118.085 34.48 117.898 34.2133 117.525 34.04C117.165 33.8533 116.585 33.6533 115.785 33.44C114.958 33.24 114.278 33.0333 113.745 32.82C113.225 32.6067 112.772 32.28 112.385 31.84C112.012 31.4 111.825 30.8067 111.825 30.06C111.825 29.4467 111.998 28.8867 112.345 28.38C112.705 27.8733 113.212 27.4733 113.865 27.18C114.532 26.8867 115.312 26.74 116.205 26.74C117.525 26.74 118.578 27.0733 119.365 27.74C120.152 28.3933 120.585 29.28 120.665 30.4H117.985C117.945 29.96 117.758 29.6133 117.425 29.36C117.105 29.0933 116.672 28.96 116.125 28.96C115.618 28.96 115.225 29.0533 114.945 29.24C114.678 29.4267 114.545 29.6867 114.545 30.02C114.545 30.3933 114.732 30.68 115.105 30.88C115.478 31.0667 116.058 31.26 116.845 31.46C117.645 31.66 118.305 31.8667 118.825 32.08C119.345 32.2933 119.792 32.6267 120.165 33.08C120.552 33.52 120.752 34.1067 120.765 34.84C120.765 35.48 120.585 36.0533 120.225 36.56C119.878 37.0667 119.372 37.4667 118.705 37.76C118.052 38.04 117.285 38.18 116.405 38.18ZM126.324 29.22V34.58C126.324 34.9533 126.41 35.2267 126.584 35.4C126.77 35.56 127.077 35.64 127.504 35.64H128.804V38H127.044C124.684 38 123.504 36.8533 123.504 34.56V29.22H122.184V26.92H123.504V24.18H126.324V26.92H128.804V29.22H126.324ZM133.618 28.64C133.978 28.0533 134.444 27.5933 135.018 27.26C135.604 26.9267 136.271 26.76 137.018 26.76V29.7H136.278C135.398 29.7 134.731 29.9067 134.278 30.32C133.838 30.7333 133.618 31.4533 133.618 32.48V38H130.818V26.92H133.618V28.64ZM138.183 32.42C138.183 31.3 138.403 30.3067 138.843 29.44C139.297 28.5733 139.903 27.9067 140.663 27.44C141.437 26.9733 142.297 26.74 143.243 26.74C144.07 26.74 144.79 26.9067 145.403 27.24C146.03 27.5733 146.53 27.9933 146.903 28.5V26.92H149.723V38H146.903V36.38C146.543 36.9 146.043 37.3333 145.403 37.68C144.777 38.0133 144.05 38.18 143.223 38.18C142.29 38.18 141.437 37.94 140.663 37.46C139.903 36.98 139.297 36.3067 138.843 35.44C138.403 34.56 138.183 33.5533 138.183 32.42ZM146.903 32.46C146.903 31.78 146.77 31.2 146.503 30.72C146.237 30.2267 145.877 29.8533 145.423 29.6C144.97 29.3333 144.483 29.2 143.963 29.2C143.443 29.2 142.963 29.3267 142.523 29.58C142.083 29.8333 141.723 30.2067 141.443 30.7C141.177 31.18 141.043 31.7533 141.043 32.42C141.043 33.0867 141.177 33.6733 141.443 34.18C141.723 34.6733 142.083 35.0533 142.523 35.32C142.977 35.5867 143.457 35.72 143.963 35.72C144.483 35.72 144.97 35.5933 145.423 35.34C145.877 35.0733 146.237 34.7 146.503 34.22C146.77 33.7267 146.903 33.14 146.903 32.46ZM155.718 29.22V34.58C155.718 34.9533 155.805 35.2267 155.978 35.4C156.165 35.56 156.471 35.64 156.898 35.64H158.198V38H156.438C154.078 38 152.898 36.8533 152.898 34.56V29.22H151.578V26.92H152.898V24.18H155.718V26.92H158.198V29.22H155.718ZM161.632 25.6C161.139 25.6 160.725 25.4467 160.392 25.14C160.072 24.82 159.912 24.4267 159.912 23.96C159.912 23.4933 160.072 23.1067 160.392 22.8C160.725 22.48 161.139 22.32 161.632 22.32C162.125 22.32 162.532 22.48 162.852 22.8C163.185 23.1067 163.352 23.4933 163.352 23.96C163.352 24.4267 163.185 24.82 162.852 25.14C162.532 25.4467 162.125 25.6 161.632 25.6ZM163.012 26.92V38H160.212V26.92H163.012ZM170.698 38.18C169.632 38.18 168.672 37.9467 167.818 37.48C166.965 37 166.292 36.3267 165.798 35.46C165.318 34.5933 165.078 33.5933 165.078 32.46C165.078 31.3267 165.325 30.3267 165.818 29.46C166.325 28.5933 167.012 27.9267 167.878 27.46C168.745 26.98 169.712 26.74 170.778 26.74C171.845 26.74 172.812 26.98 173.678 27.46C174.545 27.9267 175.225 28.5933 175.718 29.46C176.225 30.3267 176.478 31.3267 176.478 32.46C176.478 33.5933 176.218 34.5933 175.698 35.46C175.192 36.3267 174.498 37 173.618 37.48C172.752 37.9467 171.778 38.18 170.698 38.18ZM170.698 35.74C171.205 35.74 171.678 35.62 172.118 35.38C172.572 35.1267 172.932 34.7533 173.198 34.26C173.465 33.7667 173.598 33.1667 173.598 32.46C173.598 31.4067 173.318 30.6 172.758 30.04C172.212 29.4667 171.538 29.18 170.738 29.18C169.938 29.18 169.265 29.4667 168.718 30.04C168.185 30.6 167.918 31.4067 167.918 32.46C167.918 33.5133 168.178 34.3267 168.698 34.9C169.232 35.46 169.898 35.74 170.698 35.74ZM184.672 26.76C185.992 26.76 187.059 27.18 187.872 28.02C188.686 28.8467 189.092 30.0067 189.092 31.5V38H186.292V31.88C186.292 31 186.072 30.3267 185.632 29.86C185.192 29.38 184.592 29.14 183.832 29.14C183.059 29.14 182.446 29.38 181.992 29.86C181.552 30.3267 181.332 31 181.332 31.88V38H178.532V26.92H181.332V28.3C181.706 27.82 182.179 27.4467 182.752 27.18C183.339 26.9 183.979 26.76 184.672 26.76ZM202.761 26.76C203.601 26.76 204.347 26.9467 205.001 27.32C205.654 27.68 206.161 28.22 206.521 28.94C206.894 29.6467 207.081 30.5 207.081 31.5V38H204.281V31.88C204.281 31 204.061 30.3267 203.621 29.86C203.181 29.38 202.581 29.14 201.821 29.14C201.047 29.14 200.434 29.38 199.981 29.86C199.541 30.3267 199.321 31 199.321 31.88V38H196.521V23.2H199.321V28.3C199.681 27.82 200.161 27.4467 200.761 27.18C201.361 26.9 202.027 26.76 202.761 26.76ZM211.163 25.6C210.67 25.6 210.257 25.4467 209.923 25.14C209.603 24.82 209.443 24.4267 209.443 23.96C209.443 23.4933 209.603 23.1067 209.923 22.8C210.257 22.48 210.67 22.32 211.163 22.32C211.657 22.32 212.063 22.48 212.383 22.8C212.717 23.1067 212.883 23.4933 212.883 23.96C212.883 24.4267 212.717 24.82 212.383 25.14C212.063 25.4467 211.657 25.6 211.163 25.6ZM212.543 26.92V38H209.743V26.92H212.543ZM219.55 38.18C218.643 38.18 217.83 38.02 217.11 37.7C216.39 37.3667 215.816 36.92 215.39 36.36C214.976 35.8 214.75 35.18 214.71 34.5H217.53C217.583 34.9267 217.79 35.28 218.15 35.56C218.523 35.84 218.983 35.98 219.53 35.98C220.063 35.98 220.476 35.8733 220.77 35.66C221.076 35.4467 221.23 35.1733 221.23 34.84C221.23 34.48 221.043 34.2133 220.67 34.04C220.31 33.8533 219.73 33.6533 218.93 33.44C218.103 33.24 217.423 33.0333 216.89 32.82C216.37 32.6067 215.916 32.28 215.53 31.84C215.156 31.4 214.97 30.8067 214.97 30.06C214.97 29.4467 215.143 28.8867 215.49 28.38C215.85 27.8733 216.356 27.4733 217.01 27.18C217.676 26.8867 218.456 26.74 219.35 26.74C220.67 26.74 221.723 27.0733 222.51 27.74C223.296 28.3933 223.73 29.28 223.81 30.4H221.13C221.09 29.96 220.903 29.6133 220.57 29.36C220.25 29.0933 219.816 28.96 219.27 28.96C218.763 28.96 218.37 29.0533 218.09 29.24C217.823 29.4267 217.69 29.6867 217.69 30.02C217.69 30.3933 217.876 30.68 218.25 30.88C218.623 31.0667 219.203 31.26 219.99 31.46C220.79 31.66 221.45 31.8667 221.97 32.08C222.49 32.2933 222.936 32.6267 223.31 33.08C223.696 33.52 223.896 34.1067 223.91 34.84C223.91 35.48 223.73 36.0533 223.37 36.56C223.023 37.0667 222.516 37.4667 221.85 37.76C221.196 38.04 220.43 38.18 219.55 38.18ZM229.468 29.22V34.58C229.468 34.9533 229.555 35.2267 229.728 35.4C229.915 35.56 230.221 35.64 230.648 35.64H231.948V38H230.188C227.828 38 226.648 36.8533 226.648 34.56V29.22H225.328V26.92H226.648V24.18H229.468V26.92H231.948V29.22H229.468ZM238.882 38.18C237.815 38.18 236.855 37.9467 236.002 37.48C235.149 37 234.475 36.3267 233.982 35.46C233.502 34.5933 233.262 33.5933 233.262 32.46C233.262 31.3267 233.509 30.3267 234.002 29.46C234.509 28.5933 235.195 27.9267 236.062 27.46C236.929 26.98 237.895 26.74 238.962 26.74C240.029 26.74 240.995 26.98 241.862 27.46C242.729 27.9267 243.409 28.5933 243.902 29.46C244.409 30.3267 244.662 31.3267 244.662 32.46C244.662 33.5933 244.402 34.5933 243.882 35.46C243.375 36.3267 242.682 37 241.802 37.48C240.935 37.9467 239.962 38.18 238.882 38.18ZM238.882 35.74C239.389 35.74 239.862 35.62 240.302 35.38C240.755 35.1267 241.115 34.7533 241.382 34.26C241.649 33.7667 241.782 33.1667 241.782 32.46C241.782 31.4067 241.502 30.6 240.942 30.04C240.395 29.4667 239.722 29.18 238.922 29.18C238.122 29.18 237.449 29.4667 236.902 30.04C236.369 30.6 236.102 31.4067 236.102 32.46C236.102 33.5133 236.362 34.3267 236.882 34.9C237.415 35.46 238.082 35.74 238.882 35.74ZM249.516 28.64C249.876 28.0533 250.343 27.5933 250.916 27.26C251.503 26.9267 252.169 26.76 252.916 26.76V29.7H252.176C251.296 29.7 250.629 29.9067 250.176 30.32C249.736 30.7333 249.516 31.4533 249.516 32.48V38H246.716V26.92H249.516V28.64ZM265.402 26.92L258.542 43.24H255.562L257.962 37.72L253.522 26.92H256.662L259.522 34.66L262.422 26.92H265.402Z" fill="black"/>
<path d="M499.416 19.44C500.008 19.44 500.525 19.5547 500.968 19.784C501.416 20.008 501.76 20.3333 502 20.76C502.245 21.1813 502.368 21.6747 502.368 22.24C502.368 22.8053 502.245 23.296 502 23.712C501.76 24.128 501.416 24.448 500.968 24.672C500.525 24.8907 500.008 25 499.416 25H497.6V19.44H499.416ZM499.416 24.256C500.067 24.256 500.565 24.08 500.912 23.728C501.259 23.376 501.432 22.88 501.432 22.24C501.432 21.5947 501.259 21.0907 500.912 20.728C500.565 20.3653 500.067 20.184 499.416 20.184H498.512V24.256H499.416ZM502.968 22.776C502.968 22.3333 503.059 21.9413 503.24 21.6C503.427 21.2587 503.677 20.9947 503.992 20.808C504.312 20.616 504.664 20.52 505.048 20.52C505.395 20.52 505.696 20.5893 505.952 20.728C506.213 20.8613 506.421 21.0293 506.576 21.232V20.592H507.496V25H506.576V24.344C506.421 24.552 506.211 24.7253 505.944 24.864C505.677 25.0027 505.373 25.072 505.032 25.072C504.653 25.072 504.307 24.976 503.992 24.784C503.677 24.5867 503.427 24.3147 503.24 23.968C503.059 23.616 502.968 23.2187 502.968 22.776ZM506.576 22.792C506.576 22.488 506.512 22.224 506.384 22C506.261 21.776 506.099 21.6053 505.896 21.488C505.693 21.3707 505.475 21.312 505.24 21.312C505.005 21.312 504.787 21.3707 504.584 21.488C504.381 21.6 504.216 21.768 504.088 21.992C503.965 22.2107 503.904 22.472 503.904 22.776C503.904 23.08 503.965 23.3467 504.088 23.576C504.216 23.8053 504.381 23.9813 504.584 24.104C504.792 24.2213 505.011 24.28 505.24 24.28C505.475 24.28 505.693 24.2213 505.896 24.104C506.099 23.9867 506.261 23.816 506.384 23.592C506.512 23.3627 506.576 23.096 506.576 22.792ZM509.758 21.336V23.776C509.758 23.9413 509.795 24.0613 509.87 24.136C509.95 24.2053 510.083 24.24 510.27 24.24H510.83V25H510.11C509.699 25 509.384 24.904 509.166 24.712C508.947 24.52 508.838 24.208 508.838 23.776V21.336H508.318V20.592H508.838V19.496H509.758V20.592H510.83V21.336H509.758ZM511.366 22.776C511.366 22.3333 511.457 21.9413 511.638 21.6C511.825 21.2587 512.076 20.9947 512.39 20.808C512.71 20.616 513.062 20.52 513.446 20.52C513.793 20.52 514.094 20.5893 514.35 20.728C514.612 20.8613 514.82 21.0293 514.974 21.232V20.592H515.894V25H514.974V24.344C514.82 24.552 514.609 24.7253 514.342 24.864C514.076 25.0027 513.772 25.072 513.43 25.072C513.052 25.072 512.705 24.976 512.39 24.784C512.076 24.5867 511.825 24.3147 511.638 23.968C511.457 23.616 511.366 23.2187 511.366 22.776ZM514.974 22.792C514.974 22.488 514.91 22.224 514.782 22C514.66 21.776 514.497 21.6053 514.294 21.488C514.092 21.3707 513.873 21.312 513.638 21.312C513.404 21.312 513.185 21.3707 512.982 21.488C512.78 21.6 512.614 21.768 512.486 21.992C512.364 22.2107 512.302 22.472 512.302 22.776C512.302 23.08 512.364 23.3467 512.486 23.576C512.614 23.8053 512.78 23.9813 512.982 24.104C513.19 24.2213 513.409 24.28 513.638 24.28C513.873 24.28 514.092 24.2213 514.294 24.104C514.497 23.9867 514.66 23.816 514.782 23.592C514.91 23.3627 514.974 23.096 514.974 22.792ZM522.058 25L520.778 22.776H520.082V25H519.17V19.44H521.09C521.517 19.44 521.877 19.5147 522.17 19.664C522.469 19.8133 522.69 20.0133 522.834 20.264C522.984 20.5147 523.058 20.7947 523.058 21.104C523.058 21.4667 522.952 21.7973 522.738 22.096C522.53 22.3893 522.208 22.5893 521.77 22.696L523.146 25H522.058ZM520.082 22.048H521.09C521.432 22.048 521.688 21.9627 521.858 21.792C522.034 21.6213 522.122 21.392 522.122 21.104C522.122 20.816 522.037 20.592 521.866 20.432C521.696 20.2667 521.437 20.184 521.09 20.184H520.082V22.048ZM523.921 22.776C523.921 22.3333 524.012 21.9413 524.193 21.6C524.38 21.2587 524.63 20.9947 524.945 20.808C525.265 20.616 525.617 20.52 526.001 20.52C526.348 20.52 526.649 20.5893 526.905 20.728C527.166 20.8613 527.374 21.0293 527.529 21.232V20.592H528.449V25H527.529V24.344C527.374 24.552 527.164 24.7253 526.897 24.864C526.63 25.0027 526.326 25.072 525.985 25.072C525.606 25.072 525.26 24.976 524.945 24.784C524.63 24.5867 524.38 24.3147 524.193 23.968C524.012 23.616 523.921 23.2187 523.921 22.776ZM527.529 22.792C527.529 22.488 527.465 22.224 527.337 22C527.214 21.776 527.052 21.6053 526.849 21.488C526.646 21.3707 526.428 21.312 526.193 21.312C525.958 21.312 525.74 21.3707 525.537 21.488C525.334 21.6 525.169 21.768 525.041 21.992C524.918 22.2107 524.857 22.472 524.857 22.776C524.857 23.08 524.918 23.3467 525.041 23.576C525.169 23.8053 525.334 23.9813 525.537 24.104C525.745 24.2213 525.964 24.28 526.193 24.28C526.428 24.28 526.646 24.2213 526.849 24.104C527.052 23.9867 527.214 23.816 527.337 23.592C527.465 23.3627 527.529 23.096 527.529 22.792ZM531.871 20.52C532.218 20.52 532.527 20.592 532.799 20.736C533.076 20.88 533.292 21.0933 533.447 21.376C533.602 21.6587 533.679 22 533.679 22.4V25H532.775V22.536C532.775 22.1413 532.676 21.84 532.479 21.632C532.282 21.4187 532.012 21.312 531.671 21.312C531.33 21.312 531.058 21.4187 530.855 21.632C530.658 21.84 530.559 22.1413 530.559 22.536V25H529.647V20.592H530.559V21.096C530.708 20.9147 530.898 20.7733 531.127 20.672C531.362 20.5707 531.61 20.52 531.871 20.52ZM536.618 20.52C536.96 20.52 537.261 20.5893 537.522 20.728C537.789 20.8613 537.997 21.0293 538.146 21.232V20.592H539.066V25.072C539.066 25.4773 538.981 25.8373 538.81 26.152C538.64 26.472 538.392 26.7227 538.066 26.904C537.746 27.0853 537.362 27.176 536.914 27.176C536.317 27.176 535.821 27.0347 535.426 26.752C535.032 26.4747 534.808 26.096 534.754 25.616H535.658C535.728 25.8453 535.874 26.0293 536.098 26.168C536.328 26.312 536.6 26.384 536.914 26.384C537.282 26.384 537.578 26.272 537.802 26.048C538.032 25.824 538.146 25.4987 538.146 25.072V24.336C537.992 24.544 537.781 24.72 537.514 24.864C537.253 25.0027 536.954 25.072 536.618 25.072C536.234 25.072 535.882 24.976 535.562 24.784C535.248 24.5867 534.997 24.3147 534.81 23.968C534.629 23.616 534.538 23.2187 534.538 22.776C534.538 22.3333 534.629 21.9413 534.81 21.6C534.997 21.2587 535.248 20.9947 535.562 20.808C535.882 20.616 536.234 20.52 536.618 20.52ZM538.146 22.792C538.146 22.488 538.082 22.224 537.954 22C537.832 21.776 537.669 21.6053 537.466 21.488C537.264 21.3707 537.045 21.312 536.81 21.312C536.576 21.312 536.357 21.3707 536.154 21.488C535.952 21.6 535.786 21.768 535.658 21.992C535.536 22.2107 535.474 22.472 535.474 22.776C535.474 23.08 535.536 23.3467 535.658 23.576C535.786 23.8053 535.952 23.9813 536.154 24.104C536.362 24.2213 536.581 24.28 536.81 24.28C537.045 24.28 537.264 24.2213 537.466 24.104C537.669 23.9867 537.832 23.816 537.954 23.592C538.082 23.3627 538.146 23.096 538.146 22.792ZM544.304 22.688C544.304 22.8533 544.293 23.0027 544.272 23.136H540.904C540.931 23.488 541.061 23.7707 541.296 23.984C541.531 24.1973 541.819 24.304 542.16 24.304C542.651 24.304 542.997 24.0987 543.2 23.688H544.184C544.051 24.0933 543.808 24.4267 543.456 24.688C543.109 24.944 542.677 25.072 542.16 25.072C541.739 25.072 541.36 24.9787 541.024 24.792C540.693 24.6 540.432 24.3333 540.24 23.992C540.053 23.6453 539.96 23.2453 539.96 22.792C539.96 22.3387 540.051 21.9413 540.232 21.6C540.419 21.2533 540.677 20.9867 541.008 20.8C541.344 20.6133 541.728 20.52 542.16 20.52C542.576 20.52 542.947 20.6107 543.272 20.792C543.597 20.9733 543.851 21.2293 544.032 21.56C544.213 21.8853 544.304 22.2613 544.304 22.688ZM543.352 22.4C543.347 22.064 543.227 21.7947 542.992 21.592C542.757 21.3893 542.467 21.288 542.12 21.288C541.805 21.288 541.536 21.3893 541.312 21.592C541.088 21.7893 540.955 22.0587 540.912 22.4H543.352Z" fill="#414141"/>
<path d="M543 39.5H537" stroke="#292D32" stroke-width="1.5" stroke-miterlimit="10" stroke-linecap="round" stroke-linejoin="round"/>
<path d="M527 39.5H523" stroke="#292D32" stroke-width="1.5" stroke-miterlimit="10" stroke-linecap="round" stroke-linejoin="round"/>
<path d="M531 43C532.933 43 534.5 41.433 534.5 39.5C534.5 37.567 532.933 36 531 36C529.067 36 527.5 37.567 527.5 39.5C527.5 41.433 529.067 43 531 43Z" stroke="#292D32" stroke-width="1.5" stroke-miterlimit="10" stroke-linecap="round" stroke-linejoin="round"/>
<path d="M543 50.5H539" stroke="#292D32" stroke-width="1.5" stroke-miterlimit="10" stroke-linecap="round" stroke-linejoin="round"/>
<path d="M529 50.5H523" stroke="#292D32" stroke-width="1.5" stroke-miterlimit="10" stroke-linecap="round" stroke-linejoin="round"/>
<path d="M535 54C536.933 54 538.5 52.433 538.5 50.5C538.5 48.567 536.933 47 535 47C533.067 47 531.5 48.567 531.5 50.5C531.5 52.433 533.067 54 535 54Z" stroke="#292D32" stroke-width="1.5" stroke-miterlimit="10" stroke-linecap="round" stroke-linejoin="round"/>
<path d="M16.608 73.76V72.432H19.616V84H18.144V73.76H16.608ZM22.117 78.096C22.117 76.2613 22.4157 74.832 23.013 73.808C23.6103 72.7733 24.6557 72.256 26.149 72.256C27.6317 72.256 28.6717 72.7733 29.269 73.808C29.8663 74.832 30.165 76.2613 30.165 78.096C30.165 79.9627 29.8663 81.4133 29.269 82.448C28.6717 83.4827 27.6317 84 26.149 84C24.6557 84 23.6103 83.4827 23.013 82.448C22.4157 81.4133 22.117 79.9627 22.117 78.096ZM28.725 78.096C28.725 77.168 28.661 76.384 28.533 75.744C28.4157 75.0933 28.165 74.5707 27.781 74.176C27.4077 73.7813 26.8637 73.584 26.149 73.584C25.4237 73.584 24.869 73.7813 24.485 74.176C24.1117 74.5707 23.861 75.0933 23.733 75.744C23.6157 76.384 23.557 77.168 23.557 78.096C23.557 79.056 23.6157 79.8613 23.733 80.512C23.861 81.1627 24.1117 81.6853 24.485 82.08C24.869 82.4747 25.4237 82.672 26.149 82.672C26.8637 82.672 27.4077 82.4747 27.781 82.08C28.165 81.6853 28.4157 81.1627 28.533 80.512C28.661 79.8613 28.725 79.056 28.725 78.096ZM32.1639 78.096C32.1639 76.2613 32.4625 74.832 33.0599 73.808C33.6572 72.7733 34.7025 72.256 36.1959 72.256C37.6785 72.256 38.7185 72.7733 39.3159 73.808C39.9132 74.832 40.2119 76.2613 40.2119 78.096C40.2119 79.9627 39.9132 81.4133 39.3159 82.448C38.7185 83.4827 37.6785 84 36.1959 84C34.7025 84 33.6572 83.4827 33.0599 82.448C32.4625 81.4133 32.1639 79.9627 32.1639 78.096ZM38.7719 78.096C38.7719 77.168 38.7079 76.384 38.5799 75.744C38.4625 75.0933 38.2119 74.5707 37.8279 74.176C37.4545 73.7813 36.9105 73.584 36.1959 73.584C35.4705 73.584 34.9159 73.7813 34.5319 74.176C34.1585 74.5707 33.9079 75.0933 33.7799 75.744C33.6625 76.384 33.6039 77.168 33.6039 78.096C33.6039 79.056 33.6625 79.8613 33.7799 80.512C33.9079 81.1627 34.1585 81.6853 34.5319 82.08C34.9159 82.4747 35.4705 82.672 36.1959 82.672C36.9105 82.672 37.4545 82.4747 37.8279 82.08C38.2119 81.6853 38.4625 81.1627 38.5799 80.512C38.7079 79.8613 38.7719 79.056 38.7719 78.096ZM41.8908 75.04C41.8908 74.3147 42.1094 73.7387 42.5468 73.312C42.9841 72.8747 43.5441 72.656 44.2268 72.656C44.9094 72.656 45.4694 72.8747 45.9068 73.312C46.3441 73.7387 46.5628 74.3147 46.5628 75.04C46.5628 75.776 46.3441 76.3627 45.9068 76.8C45.4694 77.2267 44.9094 77.44 44.2268 77.44C43.5441 77.44 42.9841 77.2267 42.5468 76.8C42.1094 76.3627 41.8908 75.776 41.8908 75.04ZM51.2348 72.832L44.7548 84H43.3148L49.7948 72.832H51.2348ZM44.2268 73.552C43.8641 73.552 43.5761 73.68 43.3628 73.936C43.1601 74.1813 43.0588 74.5493 43.0588 75.04C43.0588 75.5307 43.1601 75.904 43.3628 76.16C43.5761 76.416 43.8641 76.544 44.2268 76.544C44.5894 76.544 44.8774 76.416 45.0908 76.16C45.3041 75.8933 45.4108 75.52 45.4108 75.04C45.4108 74.5493 45.3041 74.1813 45.0908 73.936C44.8774 73.68 44.5894 73.552 44.2268 73.552ZM48.0188 81.792C48.0188 81.056 48.2374 80.4747 48.6748 80.048C49.1121 79.6107 49.6721 79.392 50.3548 79.392C51.0374 79.392 51.5921 79.6107 52.0188 80.048C52.4561 80.4747 52.6748 81.056 52.6748 81.792C52.6748 82.5173 52.4561 83.0987 52.0188 83.536C51.5921 83.9733 51.0374 84.192 50.3548 84.192C49.6721 84.192 49.1121 83.9787 48.6748 83.552C48.2374 83.1147 48.0188 82.528 48.0188 81.792ZM50.3388 80.304C49.9761 80.304 49.6881 80.432 49.4748 80.688C49.2614 80.9333 49.1548 81.3013 49.1548 81.792C49.1548 82.272 49.2614 82.64 49.4748 82.896C49.6881 83.1413 49.9761 83.264 50.3388 83.264C50.7014 83.264 50.9894 83.1413 51.2028 82.896C51.4161 82.64 51.5228 82.272 51.5228 81.792C51.5228 81.3013 51.4161 80.9333 51.2028 80.688C50.9894 80.432 50.7014 80.304 50.3388 80.304Z" fill="#6D6666"/>
<path d="M19.104 128.984C18.5067 128.749 18.048 128.408 17.728 127.96C17.408 127.512 17.248 126.968 17.248 126.328C17.248 125.752 17.392 125.235 17.68 124.776C17.968 124.307 18.3947 123.939 18.96 123.672C19.536 123.395 20.2293 123.256 21.04 123.256C21.8507 123.256 22.5387 123.395 23.104 123.672C23.68 123.939 24.112 124.307 24.4 124.776C24.6987 125.235 24.848 125.752 24.848 126.328C24.848 126.947 24.6827 127.491 24.352 127.96C24.0213 128.419 23.568 128.76 22.992 128.984C23.6533 129.187 24.176 129.544 24.56 130.056C24.9547 130.557 25.152 131.165 25.152 131.88C25.152 132.573 24.9813 133.181 24.64 133.704C24.2987 134.216 23.8133 134.616 23.184 134.904C22.5653 135.181 21.8507 135.32 21.04 135.32C20.2293 135.32 19.5147 135.181 18.896 134.904C18.288 134.616 17.8133 134.216 17.472 133.704C17.1307 133.181 16.96 132.573 16.96 131.88C16.96 131.165 17.152 130.552 17.536 130.04C17.92 129.528 18.4427 129.176 19.104 128.984ZM23.44 126.504C23.44 125.853 23.2267 125.352 22.8 125C22.3733 124.648 21.7867 124.472 21.04 124.472C20.304 124.472 19.7227 124.648 19.296 125C18.8693 125.352 18.656 125.859 18.656 126.52C18.656 127.117 18.8747 127.597 19.312 127.96C19.76 128.323 20.336 128.504 21.04 128.504C21.7547 128.504 22.3307 128.323 22.768 127.96C23.216 127.587 23.44 127.101 23.44 126.504ZM21.04 129.624C20.2507 129.624 19.6053 129.811 19.104 130.184C18.6027 130.547 18.352 131.096 18.352 131.832C18.352 132.515 18.592 133.064 19.072 133.48C19.5627 133.896 20.2187 134.104 21.04 134.104C21.8613 134.104 22.512 133.896 22.992 133.48C23.472 133.064 23.712 132.515 23.712 131.832C23.712 131.117 23.4667 130.573 22.976 130.2C22.4853 129.816 21.84 129.624 21.04 129.624ZM27.0858 129.096C27.0858 127.261 27.3844 125.832 27.9818 124.808C28.5791 123.773 29.6244 123.256 31.1178 123.256C32.6004 123.256 33.6404 123.773 34.2378 124.808C34.8351 125.832 35.1337 127.261 35.1337 129.096C35.1337 130.963 34.8351 132.413 34.2378 133.448C33.6404 134.483 32.6004 135 31.1178 135C29.6244 135 28.5791 134.483 27.9818 133.448C27.3844 132.413 27.0858 130.963 27.0858 129.096ZM33.6938 129.096C33.6938 128.168 33.6298 127.384 33.5018 126.744C33.3844 126.093 33.1338 125.571 32.7498 125.176C32.3764 124.781 31.8324 124.584 31.1178 124.584C30.3924 124.584 29.8378 124.781 29.4538 125.176C29.0804 125.571 28.8298 126.093 28.7018 126.744C28.5844 127.384 28.5258 128.168 28.5258 129.096C28.5258 130.056 28.5844 130.861 28.7018 131.512C28.8298 132.163 29.0804 132.685 29.4538 133.08C29.8378 133.475 30.3924 133.672 31.1178 133.672C31.8324 133.672 32.3764 133.475 32.7498 133.08C33.1338 132.685 33.3844 132.163 33.5018 131.512C33.6298 130.861 33.6938 130.056 33.6938 129.096ZM36.8126 126.04C36.8126 125.315 37.0313 124.739 37.4686 124.312C37.906 123.875 38.466 123.656 39.1486 123.656C39.8313 123.656 40.3913 123.875 40.8286 124.312C41.266 124.739 41.4846 125.315 41.4846 126.04C41.4846 126.776 41.266 127.363 40.8286 127.8C40.3913 128.227 39.8313 128.44 39.1486 128.44C38.466 128.44 37.906 128.227 37.4686 127.8C37.0313 127.363 36.8126 126.776 36.8126 126.04ZM46.1566 123.832L39.6766 135H38.2366L44.7166 123.832H46.1566ZM39.1486 124.552C38.786 124.552 38.498 124.68 38.2846 124.936C38.082 125.181 37.9806 125.549 37.9806 126.04C37.9806 126.531 38.082 126.904 38.2846 127.16C38.498 127.416 38.786 127.544 39.1486 127.544C39.5113 127.544 39.7993 127.416 40.0126 127.16C40.226 126.893 40.3326 126.52 40.3326 126.04C40.3326 125.549 40.226 125.181 40.0126 124.936C39.7993 124.68 39.5113 124.552 39.1486 124.552ZM42.9406 132.792C42.9406 132.056 43.1593 131.475 43.5966 131.048C44.034 130.611 44.594 130.392 45.2766 130.392C45.9593 130.392 46.514 130.611 46.9406 131.048C47.378 131.475 47.5966 132.056 47.5966 132.792C47.5966 133.517 47.378 134.099 46.9406 134.536C46.514 134.973 45.9593 135.192 45.2766 135.192C44.594 135.192 44.034 134.979 43.5966 134.552C43.1593 134.115 42.9406 133.528 42.9406 132.792ZM45.2606 131.304C44.898 131.304 44.61 131.432 44.3966 131.688C44.1833 131.933 44.0766 132.301 44.0766 132.792C44.0766 133.272 44.1833 133.64 44.3966 133.896C44.61 134.141 44.898 134.264 45.2606 134.264C45.6233 134.264 45.9113 134.141 46.1246 133.896C46.338 133.64 46.4446 133.272 46.4446 132.792C46.4446 132.301 46.338 131.933 46.1246 131.688C45.9113 131.432 45.6233 131.304 45.2606 131.304Z" fill="#6D6666"/>
<path d="M23.44 177.184C23.2053 176 22.4747 175.408 21.248 175.408C20.2987 175.408 19.5893 175.776 19.12 176.512C18.6507 177.237 18.4213 178.437 18.432 180.112C18.6773 179.557 19.0827 179.125 19.648 178.816C20.224 178.496 20.864 178.336 21.568 178.336C22.6667 178.336 23.5413 178.677 24.192 179.36C24.8533 180.043 25.184 180.987 25.184 182.192C25.184 182.917 25.04 183.568 24.752 184.144C24.4747 184.72 24.048 185.179 23.472 185.52C22.9067 185.861 22.2187 186.032 21.408 186.032C20.3093 186.032 19.4507 185.787 18.832 185.296C18.2133 184.805 17.7813 184.128 17.536 183.264C17.2907 182.4 17.168 181.333 17.168 180.064C17.168 176.149 18.5333 174.192 21.264 174.192C22.3093 174.192 23.1307 174.475 23.728 175.04C24.3253 175.605 24.6773 176.32 24.784 177.184H23.44ZM21.264 179.568C20.8053 179.568 20.3733 179.664 19.968 179.856C19.5627 180.037 19.232 180.32 18.976 180.704C18.7307 181.077 18.608 181.536 18.608 182.08C18.608 182.891 18.8427 183.552 19.312 184.064C19.7813 184.565 20.4533 184.816 21.328 184.816C22.0747 184.816 22.6667 184.587 23.104 184.128C23.552 183.659 23.776 183.029 23.776 182.24C23.776 181.408 23.5627 180.757 23.136 180.288C22.7093 179.808 22.0853 179.568 21.264 179.568ZM27.1483 180.096C27.1483 178.261 27.4469 176.832 28.0443 175.808C28.6416 174.773 29.6869 174.256 31.1803 174.256C32.6629 174.256 33.7029 174.773 34.3003 175.808C34.8976 176.832 35.1962 178.261 35.1962 180.096C35.1962 181.963 34.8976 183.413 34.3003 184.448C33.7029 185.483 32.6629 186 31.1803 186C29.6869 186 28.6416 185.483 28.0443 184.448C27.4469 183.413 27.1483 181.963 27.1483 180.096ZM33.7563 180.096C33.7563 179.168 33.6923 178.384 33.5643 177.744C33.4469 177.093 33.1963 176.571 32.8123 176.176C32.4389 175.781 31.8949 175.584 31.1803 175.584C30.4549 175.584 29.9003 175.781 29.5163 176.176C29.1429 176.571 28.8923 177.093 28.7643 177.744C28.6469 178.384 28.5883 179.168 28.5883 180.096C28.5883 181.056 28.6469 181.861 28.7643 182.512C28.8923 183.163 29.1429 183.685 29.5163 184.08C29.9003 184.475 30.4549 184.672 31.1803 184.672C31.8949 184.672 32.4389 184.475 32.8123 184.08C33.1963 183.685 33.4469 183.163 33.5643 182.512C33.6923 181.861 33.7563 181.056 33.7563 180.096ZM36.8751 177.04C36.8751 176.315 37.0938 175.739 37.5311 175.312C37.9685 174.875 38.5285 174.656 39.2111 174.656C39.8938 174.656 40.4538 174.875 40.8911 175.312C41.3285 175.739 41.5471 176.315 41.5471 177.04C41.5471 177.776 41.3285 178.363 40.8911 178.8C40.4538 179.227 39.8938 179.44 39.2111 179.44C38.5285 179.44 37.9685 179.227 37.5311 178.8C37.0938 178.363 36.8751 177.776 36.8751 177.04ZM46.2191 174.832L39.7391 186H38.2991L44.7791 174.832H46.2191ZM39.2111 175.552C38.8485 175.552 38.5605 175.68 38.3471 175.936C38.1445 176.181 38.0431 176.549 38.0431 177.04C38.0431 177.531 38.1445 177.904 38.3471 178.16C38.5605 178.416 38.8485 178.544 39.2111 178.544C39.5738 178.544 39.8618 178.416 40.0751 178.16C40.2885 177.893 40.3951 177.52 40.3951 177.04C40.3951 176.549 40.2885 176.181 40.0751 175.936C39.8618 175.68 39.5738 175.552 39.2111 175.552ZM43.0031 183.792C43.0031 183.056 43.2218 182.475 43.6591 182.048C44.0965 181.611 44.6565 181.392 45.3391 181.392C46.0218 181.392 46.5765 181.611 47.0031 182.048C47.4405 182.475 47.6591 183.056 47.6591 183.792C47.6591 184.517 47.4405 185.099 47.0031 185.536C46.5765 185.973 46.0218 186.192 45.3391 186.192C44.6565 186.192 44.0965 185.979 43.6591 185.552C43.2218 185.115 43.0031 184.528 43.0031 183.792ZM45.3231 182.304C44.9605 182.304 44.6725 182.432 44.4591 182.688C44.2458 182.933 44.1391 183.301 44.1391 183.792C44.1391 184.272 44.2458 184.64 44.4591 184.896C44.6725 185.141 44.9605 185.264 45.3231 185.264C45.6858 185.264 45.9738 185.141 46.1871 184.896C46.4005 184.64 46.5071 184.272 46.5071 183.792C46.5071 183.301 46.4005 182.933 46.1871 182.688C45.9738 182.432 45.6858 182.304 45.3231 182.304Z" fill="#6D6666"/>
<path d="M16.64 234.424V233.32L22.256 225.544H24V233.16H25.6V234.424H24V237H22.56V234.424H16.64ZM22.624 227.064L18.32 233.16H22.624V227.064ZM27.0545 231.096C27.0545 229.261 27.3532 227.832 27.9505 226.808C28.5478 225.773 29.5932 225.256 31.0865 225.256C32.5692 225.256 33.6092 225.773 34.2065 226.808C34.8038 227.832 35.1025 229.261 35.1025 231.096C35.1025 232.963 34.8038 234.413 34.2065 235.448C33.6092 236.483 32.5692 237 31.0865 237C29.5932 237 28.5478 236.483 27.9505 235.448C27.3532 234.413 27.0545 232.963 27.0545 231.096ZM33.6625 231.096C33.6625 230.168 33.5985 229.384 33.4705 228.744C33.3532 228.093 33.1025 227.571 32.7185 227.176C32.3452 226.781 31.8012 226.584 31.0865 226.584C30.3612 226.584 29.8065 226.781 29.4225 227.176C29.0492 227.571 28.7985 228.093 28.6705 228.744C28.5532 229.384 28.4945 230.168 28.4945 231.096C28.4945 232.056 28.5532 232.861 28.6705 233.512C28.7985 234.163 29.0492 234.685 29.4225 235.08C29.8065 235.475 30.3612 235.672 31.0865 235.672C31.8012 235.672 32.3452 235.475 32.7185 235.08C33.1025 234.685 33.3532 234.163 33.4705 233.512C33.5985 232.861 33.6625 232.056 33.6625 231.096ZM36.7814 228.04C36.7814 227.315 37 226.739 37.4374 226.312C37.8747 225.875 38.4347 225.656 39.1174 225.656C39.8 225.656 40.36 225.875 40.7974 226.312C41.2347 226.739 41.4534 227.315 41.4534 228.04C41.4534 228.776 41.2347 229.363 40.7974 229.8C40.36 230.227 39.8 230.44 39.1174 230.44C38.4347 230.44 37.8747 230.227 37.4374 229.8C37 229.363 36.7814 228.776 36.7814 228.04ZM46.1254 225.832L39.6454 237H38.2054L44.6854 225.832H46.1254ZM39.1174 226.552C38.7547 226.552 38.4667 226.68 38.2534 226.936C38.0507 227.181 37.9494 227.549 37.9494 228.04C37.9494 228.531 38.0507 228.904 38.2534 229.16C38.4667 229.416 38.7547 229.544 39.1174 229.544C39.48 229.544 39.768 229.416 39.9814 229.16C40.1947 228.893 40.3014 228.52 40.3014 228.04C40.3014 227.549 40.1947 227.181 39.9814 226.936C39.768 226.68 39.48 226.552 39.1174 226.552ZM42.9094 234.792C42.9094 234.056 43.128 233.475 43.5654 233.048C44.0027 232.611 44.5627 232.392 45.2454 232.392C45.928 232.392 46.4827 232.611 46.9094 233.048C47.3467 233.475 47.5654 234.056 47.5654 234.792C47.5654 235.517 47.3467 236.099 46.9094 236.536C46.4827 236.973 45.928 237.192 45.2454 237.192C44.5627 237.192 44.0027 236.979 43.5654 236.552C43.128 236.115 42.9094 235.528 42.9094 234.792ZM45.2294 233.304C44.8667 233.304 44.5787 233.432 44.3654 233.688C44.152 233.933 44.0454 234.301 44.0454 234.792C44.0454 235.272 44.152 235.64 44.3654 235.896C44.5787 236.141 44.8667 236.264 45.2294 236.264C45.592 236.264 45.88 236.141 46.0934 235.896C46.3067 235.64 46.4134 235.272 46.4134 234.792C46.4134 234.301 46.3067 233.933 46.0934 233.688C45.88 233.432 45.592 233.304 45.2294 233.304Z" fill="#6D6666"/>
<path d="M16.816 286.832C18.1707 285.744 19.232 284.853 20 284.16C20.768 283.456 21.4133 282.725 21.936 281.968C22.4693 281.2 22.736 280.448 22.736 279.712C22.736 279.019 22.5653 278.475 22.224 278.08C21.8933 277.675 21.3547 277.472 20.608 277.472C19.8827 277.472 19.3173 277.701 18.912 278.16C18.5173 278.608 18.304 279.211 18.272 279.968H16.864C16.9067 278.773 17.2693 277.851 17.952 277.2C18.6347 276.549 19.5147 276.224 20.592 276.224C21.6907 276.224 22.56 276.528 23.2 277.136C23.8507 277.744 24.176 278.581 24.176 279.648C24.176 280.533 23.9093 281.397 23.376 282.24C22.8533 283.072 22.256 283.808 21.584 284.448C20.912 285.077 20.0533 285.813 19.008 286.656H24.512V287.872H16.816V286.832ZM26.1951 282.096C26.1951 280.261 26.4938 278.832 27.0911 277.808C27.6885 276.773 28.7338 276.256 30.2271 276.256C31.7098 276.256 32.7498 276.773 33.3471 277.808C33.9445 278.832 34.2431 280.261 34.2431 282.096C34.2431 283.963 33.9445 285.413 33.3471 286.448C32.7498 287.483 31.7098 288 30.2271 288C28.7338 288 27.6885 287.483 27.0911 286.448C26.4938 285.413 26.1951 283.963 26.1951 282.096ZM32.8031 282.096C32.8031 281.168 32.7391 280.384 32.6111 279.744C32.4938 279.093 32.2431 278.571 31.8591 278.176C31.4858 277.781 30.9418 277.584 30.2271 277.584C29.5018 277.584 28.9471 277.781 28.5631 278.176C28.1898 278.571 27.9391 279.093 27.8111 279.744C27.6938 280.384 27.6351 281.168 27.6351 282.096C27.6351 283.056 27.6938 283.861 27.8111 284.512C27.9391 285.163 28.1898 285.685 28.5631 286.08C28.9471 286.475 29.5018 286.672 30.2271 286.672C30.9418 286.672 31.4858 286.475 31.8591 286.08C32.2431 285.685 32.4938 285.163 32.6111 284.512C32.7391 283.861 32.8031 283.056 32.8031 282.096ZM35.922 279.04C35.922 278.315 36.1407 277.739 36.578 277.312C37.0153 276.875 37.5753 276.656 38.258 276.656C38.9407 276.656 39.5007 276.875 39.938 277.312C40.3753 277.739 40.594 278.315 40.594 279.04C40.594 279.776 40.3753 280.363 39.938 280.8C39.5007 281.227 38.9407 281.44 38.258 281.44C37.5753 281.44 37.0153 281.227 36.578 280.8C36.1407 280.363 35.922 279.776 35.922 279.04ZM45.266 276.832L38.786 288H37.346L43.826 276.832H45.266ZM38.258 277.552C37.8953 277.552 37.6073 277.68 37.394 277.936C37.1913 278.181 37.09 278.549 37.09 279.04C37.09 279.531 37.1913 279.904 37.394 280.16C37.6073 280.416 37.8953 280.544 38.258 280.544C38.6207 280.544 38.9087 280.416 39.122 280.16C39.3353 279.893 39.442 279.52 39.442 279.04C39.442 278.549 39.3353 278.181 39.122 277.936C38.9087 277.68 38.6207 277.552 38.258 277.552ZM42.05 285.792C42.05 285.056 42.2687 284.475 42.706 284.048C43.1433 283.611 43.7033 283.392 44.386 283.392C45.0687 283.392 45.6233 283.611 46.05 284.048C46.4873 284.475 46.706 285.056 46.706 285.792C46.706 286.517 46.4873 287.099 46.05 287.536C45.6233 287.973 45.0687 288.192 44.386 288.192C43.7033 288.192 43.1433 287.979 42.706 287.552C42.2687 287.115 42.05 286.528 42.05 285.792ZM44.37 284.304C44.0073 284.304 43.7193 284.432 43.506 284.688C43.2927 284.933 43.186 285.301 43.186 285.792C43.186 286.272 43.2927 286.64 43.506 286.896C43.7193 287.141 44.0073 287.264 44.37 287.264C44.7327 287.264 45.0207 287.141 45.234 286.896C45.4473 286.64 45.554 286.272 45.554 285.792C45.554 285.301 45.4473 284.933 45.234 284.688C45.0207 284.432 44.7327 284.304 44.37 284.304Z" fill="#6D6666"/>
<path d="M16.992 333.096C16.992 331.261 17.2907 329.832 17.888 328.808C18.4853 327.773 19.5307 327.256 21.024 327.256C22.5067 327.256 23.5467 327.773 24.144 328.808C24.7413 329.832 25.04 331.261 25.04 333.096C25.04 334.963 24.7413 336.413 24.144 337.448C23.5467 338.483 22.5067 339 21.024 339C19.5307 339 18.4853 338.483 17.888 337.448C17.2907 336.413 16.992 334.963 16.992 333.096ZM23.6 333.096C23.6 332.168 23.536 331.384 23.408 330.744C23.2907 330.093 23.04 329.571 22.656 329.176C22.2827 328.781 21.7387 328.584 21.024 328.584C20.2987 328.584 19.744 328.781 19.36 329.176C18.9867 329.571 18.736 330.093 18.608 330.744C18.4907 331.384 18.432 332.168 18.432 333.096C18.432 334.056 18.4907 334.861 18.608 335.512C18.736 336.163 18.9867 336.685 19.36 337.08C19.744 337.475 20.2987 337.672 21.024 337.672C21.7387 337.672 22.2827 337.475 22.656 337.08C23.04 336.685 23.2907 336.163 23.408 335.512C23.536 334.861 23.6 334.056 23.6 333.096ZM26.7189 330.04C26.7189 329.315 26.9375 328.739 27.3749 328.312C27.8122 327.875 28.3722 327.656 29.0549 327.656C29.7375 327.656 30.2975 327.875 30.7349 328.312C31.1722 328.739 31.3909 329.315 31.3909 330.04C31.3909 330.776 31.1722 331.363 30.7349 331.8C30.2975 332.227 29.7375 332.44 29.0549 332.44C28.3722 332.44 27.8122 332.227 27.3749 331.8C26.9375 331.363 26.7189 330.776 26.7189 330.04ZM36.0629 327.832L29.5829 339H28.1429L34.6229 327.832H36.0629ZM29.0549 328.552C28.6922 328.552 28.4042 328.68 28.1909 328.936C27.9882 329.181 27.8869 329.549 27.8869 330.04C27.8869 330.531 27.9882 330.904 28.1909 331.16C28.4042 331.416 28.6922 331.544 29.0549 331.544C29.4175 331.544 29.7055 331.416 29.9189 331.16C30.1322 330.893 30.2389 330.52 30.2389 330.04C30.2389 329.549 30.1322 329.181 29.9189 328.936C29.7055 328.68 29.4175 328.552 29.0549 328.552ZM32.8469 336.792C32.8469 336.056 33.0655 335.475 33.5029 335.048C33.9402 334.611 34.5002 334.392 35.1829 334.392C35.8655 334.392 36.4202 334.611 36.8469 335.048C37.2842 335.475 37.5029 336.056 37.5029 336.792C37.5029 337.517 37.2842 338.099 36.8469 338.536C36.4202 338.973 35.8655 339.192 35.1829 339.192C34.5002 339.192 33.9402 338.979 33.5029 338.552C33.0655 338.115 32.8469 337.528 32.8469 336.792ZM35.1669 335.304C34.8042 335.304 34.5162 335.432 34.3029 335.688C34.0895 335.933 33.9829 336.301 33.9829 336.792C33.9829 337.272 34.0895 337.64 34.3029 337.896C34.5162 338.141 34.8042 338.264 35.1669 338.264C35.5295 338.264 35.8175 338.141 36.0309 337.896C36.2442 337.64 36.3509 337.272 36.3509 336.792C36.3509 336.301 36.2442 335.933 36.0309 335.688C35.8175 335.432 35.5295 335.304 35.1669 335.304Z" fill="#6D6666"/>
<line y1="-0.25" x2="497" y2="-0.25" transform="matrix(1 6.85415e-05 -5.98195e-05 1 55 85)" stroke="#6D6666" stroke-width="0.5"/>
<line y1="-0.25" x2="497" y2="-0.25" transform="matrix(1 6.85415e-05 -5.98195e-05 1 55 136.034)" stroke="#6D6666" stroke-width="0.5"/>
<line y1="-0.25" x2="497" y2="-0.25" transform="matrix(1 6.85415e-05 -5.98195e-05 1 55 187.068)" stroke="#6D6666" stroke-width="0.5"/>
<line y1="-0.25" x2="497" y2="-0.25" transform="matrix(1 6.85415e-05 -5.98195e-05 1 55 238.102)" stroke="#6D6666" stroke-width="0.5"/>
<line y1="-0.25" x2="497" y2="-0.25" transform="matrix(1 6.85415e-05 -5.98195e-05 1 55 289.136)" stroke="#6D6666" stroke-width="0.5"/>
<line y1="-0.25" x2="497" y2="-0.25" transform="matrix(1 6.85415e-05 -5.98195e-05 1 55 340.17)" stroke="#6D6666" stroke-width="0.5"/>
<path d="M70 188C70 185.239 72.2386 183 75 183H95C97.7614 183 100 185.239 100 188V337.339C100 338.996 98.6569 340.339 97 340.339H73C71.3431 340.339 70 338.996 70 337.339V188Z" fill="#636A80"/>
<path d="M125 160C125 157.239 127.239 155 130 155H150C152.761 155 155 157.239 155 160V337C155 338.657 153.657 340 152 340H128C126.343 340 125 338.657 125 337V160Z" fill="#636A80"/>
<path d="M181 105C181 102.239 183.239 100 186 100H206C208.761 100 211 102.239 211 105V337.339C211 338.996 209.657 340.339 208 340.339H184C182.343 340.339 181 338.996 181 337.339V105Z" fill="#636A80"/>
<path d="M236 122C236 119.239 238.239 117 241 117H261C263.761 117 266 119.239 266 122V337C266 338.657 264.657 340 263 340H239C237.343 340 236 338.657 236 337V122Z" fill="#636A80"/>
<path d="M292 178C292 175.239 294.239 173 297 173H317C319.761 173 322 175.239 322 178V337.339C322 338.996 320.657 340.339 319 340.339H295C293.343 340.339 292 338.996 292 337.339V178Z" fill="#636A80"/>
<path d="M347 205C347 202.239 349.239 200 352 200H372C374.761 200 377 202.239 377 205V337C377 338.657 375.657 340 374 340H350C348.343 340 347 338.657 347 337V205Z" fill="#636A80"/>
<path d="M403 248C403 245.239 405.239 243 408 243H428C430.761 243 433 245.239 433 248V337C433 338.657 431.657 340 430 340H406C404.343 340 403 338.657 403 337V248Z" fill="#636A80"/>
<path d="M459 146C459 143.239 461.239 141 464 141H484C486.761 141 489 143.239 489 146V337C489 338.657 487.657 340 486 340H462C460.343 340 459 338.657 459 337V146Z" fill="#636A80"/>
<path d="M514 247C514 244.239 516.239 242 519 242H539C541.761 242 544 244.239 544 247V337.339C544 338.996 542.657 340.339 541 340.339H517C515.343 340.339 514 338.996 514 337.339V247Z" fill="#636A80"/>
<path d="M75.136 350.636V356.816C75.136 357.504 74.924 358.056 74.5 358.472C74.076 358.88 73.516 359.084 72.82 359.084C72.116 359.084 71.552 358.876 71.128 358.46C70.704 358.036 70.492 357.46 70.492 356.732H71.584C71.592 357.14 71.696 357.472 71.896 357.728C72.104 357.984 72.412 358.112 72.82 358.112C73.228 358.112 73.532 357.992 73.732 357.752C73.932 357.504 74.032 357.192 74.032 356.816V350.636H75.136ZM76.8793 355.688C76.8793 355.016 77.0153 354.428 77.2873 353.924C77.5593 353.412 77.9313 353.016 78.4033 352.736C78.8833 352.456 79.4153 352.316 79.9993 352.316C80.5753 352.316 81.0753 352.44 81.4993 352.688C81.9233 352.936 82.2393 353.248 82.4473 353.624V352.424H83.5513V359H82.4473V357.776C82.2313 358.16 81.9073 358.48 81.4753 358.736C81.0513 358.984 80.5553 359.108 79.9873 359.108C79.4033 359.108 78.8753 358.964 78.4033 358.676C77.9313 358.388 77.5593 357.984 77.2873 357.464C77.0153 356.944 76.8793 356.352 76.8793 355.688ZM82.4473 355.7C82.4473 355.204 82.3473 354.772 82.1473 354.404C81.9473 354.036 81.6753 353.756 81.3313 353.564C80.9953 353.364 80.6233 353.264 80.2153 353.264C79.8073 353.264 79.4353 353.36 79.0993 353.552C78.7633 353.744 78.4953 354.024 78.2953 354.392C78.0953 354.76 77.9953 355.192 77.9953 355.688C77.9953 356.192 78.0953 356.632 78.2953 357.008C78.4953 357.376 78.7633 357.66 79.0993 357.86C79.4353 358.052 79.8073 358.148 80.2153 358.148C80.6233 358.148 80.9953 358.052 81.3313 357.86C81.6753 357.66 81.9473 357.376 82.1473 357.008C82.3473 356.632 82.4473 356.196 82.4473 355.7ZM88.6007 352.304C89.4007 352.304 90.0487 352.548 90.5447 353.036C91.0407 353.516 91.2887 354.212 91.2887 355.124V359H90.2087V355.28C90.2087 354.624 90.0447 354.124 89.7167 353.78C89.3887 353.428 88.9407 353.252 88.3727 353.252C87.7967 353.252 87.3367 353.432 86.9927 353.792C86.6567 354.152 86.4887 354.676 86.4887 355.364V359H85.3967V352.424H86.4887V353.36C86.7047 353.024 86.9967 352.764 87.3647 352.58C87.7407 352.396 88.1527 352.304 88.6007 352.304Z" fill="#6D6666"/>
<path d="M126.652 350.636V351.524H123.016V354.344H125.968V355.232H123.016V359H121.924V350.636H126.652ZM133.971 355.46C133.971 355.668 133.959 355.888 133.935 356.12H128.679C128.719 356.768 128.939 357.276 129.339 357.644C129.747 358.004 130.239 358.184 130.815 358.184C131.287 358.184 131.679 358.076 131.991 357.86C132.311 357.636 132.535 357.34 132.663 356.972H133.839C133.663 357.604 133.311 358.12 132.783 358.52C132.255 358.912 131.599 359.108 130.815 359.108C130.191 359.108 129.631 358.968 129.135 358.688C128.647 358.408 128.263 358.012 127.983 357.5C127.703 356.98 127.563 356.38 127.563 355.7C127.563 355.02 127.699 354.424 127.971 353.912C128.243 353.4 128.623 353.008 129.111 352.736C129.607 352.456 130.175 352.316 130.815 352.316C131.439 352.316 131.991 352.452 132.471 352.724C132.951 352.996 133.319 353.372 133.575 353.852C133.839 354.324 133.971 354.86 133.971 355.46ZM132.843 355.232C132.843 354.816 132.751 354.46 132.567 354.164C132.383 353.86 132.131 353.632 131.811 353.48C131.499 353.32 131.151 353.24 130.767 353.24C130.215 353.24 129.743 353.416 129.351 353.768C128.967 354.12 128.747 354.608 128.691 355.232H132.843ZM136.504 353.648C136.728 353.256 137.056 352.936 137.488 352.688C137.92 352.44 138.412 352.316 138.964 352.316C139.556 352.316 140.088 352.456 140.56 352.736C141.032 353.016 141.404 353.412 141.676 353.924C141.948 354.428 142.084 355.016 142.084 355.688C142.084 356.352 141.948 356.944 141.676 357.464C141.404 357.984 141.028 358.388 140.548 358.676C140.076 358.964 139.548 359.108 138.964 359.108C138.396 359.108 137.896 358.984 137.464 358.736C137.04 358.488 136.72 358.172 136.504 357.788V359H135.412V350.12H136.504V353.648ZM140.968 355.688C140.968 355.192 140.868 354.76 140.668 354.392C140.468 354.024 140.196 353.744 139.852 353.552C139.516 353.36 139.144 353.264 138.736 353.264C138.336 353.264 137.964 353.364 137.62 353.564C137.284 353.756 137.012 354.04 136.804 354.416C136.604 354.784 136.504 355.212 136.504 355.7C136.504 356.196 136.604 356.632 136.804 357.008C137.012 357.376 137.284 357.66 137.62 357.86C137.964 358.052 138.336 358.148 138.736 358.148C139.144 358.148 139.516 358.052 139.852 357.86C140.196 357.66 140.468 357.376 140.668 357.008C140.868 356.632 140.968 356.192 140.968 355.688Z" fill="#6D6666"/>
<path d="M180.408 350.696V359H179.316V352.808L176.556 359H175.788L173.016 352.796V359H171.924V350.696H173.1L176.172 357.56L179.244 350.696H180.408ZM181.852 355.688C181.852 355.016 181.988 354.428 182.26 353.924C182.532 353.412 182.904 353.016 183.376 352.736C183.856 352.456 184.388 352.316 184.972 352.316C185.548 352.316 186.048 352.44 186.472 352.688C186.896 352.936 187.212 353.248 187.42 353.624V352.424H188.524V359H187.42V357.776C187.204 358.16 186.88 358.48 186.448 358.736C186.024 358.984 185.528 359.108 184.96 359.108C184.376 359.108 183.848 358.964 183.376 358.676C182.904 358.388 182.532 357.984 182.26 357.464C181.988 356.944 181.852 356.352 181.852 355.688ZM187.42 355.7C187.42 355.204 187.32 354.772 187.12 354.404C186.92 354.036 186.648 353.756 186.304 353.564C185.968 353.364 185.596 353.264 185.188 353.264C184.78 353.264 184.408 353.36 184.072 353.552C183.736 353.744 183.468 354.024 183.268 354.392C183.068 354.76 182.968 355.192 182.968 355.688C182.968 356.192 183.068 356.632 183.268 357.008C183.468 357.376 183.736 357.66 184.072 357.86C184.408 358.052 184.78 358.148 185.188 358.148C185.596 358.148 185.968 358.052 186.304 357.86C186.648 357.66 186.92 357.376 187.12 357.008C187.32 356.632 187.42 356.196 187.42 355.7ZM191.461 353.492C191.653 353.116 191.925 352.824 192.277 352.616C192.637 352.408 193.073 352.304 193.585 352.304V353.432H193.297C192.073 353.432 191.461 354.096 191.461 355.424V359H190.369V352.424H191.461V353.492Z" fill="#6D6666"/>
<path d="M227.868 357.14H224.22L223.548 359H222.396L225.42 350.684H226.68L229.692 359H228.54L227.868 357.14ZM227.556 356.252L226.044 352.028L224.532 356.252H227.556ZM232.102 353.636C232.318 353.26 232.638 352.948 233.062 352.7C233.494 352.444 233.994 352.316 234.562 352.316C235.146 352.316 235.674 352.456 236.146 352.736C236.626 353.016 237.002 353.412 237.274 353.924C237.546 354.428 237.682 355.016 237.682 355.688C237.682 356.352 237.546 356.944 237.274 357.464C237.002 357.984 236.626 358.388 236.146 358.676C235.674 358.964 235.146 359.108 234.562 359.108C234.002 359.108 233.506 358.984 233.074 358.736C232.65 358.48 232.326 358.164 232.102 357.788V362.12H231.01V352.424H232.102V353.636ZM236.566 355.688C236.566 355.192 236.466 354.76 236.266 354.392C236.066 354.024 235.794 353.744 235.45 353.552C235.114 353.36 234.742 353.264 234.334 353.264C233.934 353.264 233.562 353.364 233.218 353.564C232.882 353.756 232.61 354.04 232.402 354.416C232.202 354.784 232.102 355.212 232.102 355.7C232.102 356.196 232.202 356.632 232.402 357.008C232.61 357.376 232.882 357.66 233.218 357.86C233.562 358.052 233.934 358.148 234.334 358.148C234.742 358.148 235.114 358.052 235.45 357.86C235.794 357.66 236.066 357.376 236.266 357.008C236.466 356.632 236.566 356.192 236.566 355.688ZM240.211 353.492C240.403 353.116 240.675 352.824 241.027 352.616C241.387 352.408 241.823 352.304 242.335 352.304V353.432H242.047C240.823 353.432 240.211 354.096 240.211 355.424V359H239.119V352.424H240.211V353.492Z" fill="#6D6666"/>
<path d="M280.408 350.696V359H279.316V352.808L276.556 359H275.788L273.016 352.796V359H271.924V350.696H273.1L276.172 357.56L279.244 350.696H280.408ZM281.852 355.688C281.852 355.016 281.988 354.428 282.26 353.924C282.532 353.412 282.904 353.016 283.376 352.736C283.856 352.456 284.388 352.316 284.972 352.316C285.548 352.316 286.048 352.44 286.472 352.688C286.896 352.936 287.212 353.248 287.42 353.624V352.424H288.524V359H287.42V357.776C287.204 358.16 286.88 358.48 286.448 358.736C286.024 358.984 285.528 359.108 284.96 359.108C284.376 359.108 283.848 358.964 283.376 358.676C282.904 358.388 282.532 357.984 282.26 357.464C281.988 356.944 281.852 356.352 281.852 355.688ZM287.42 355.7C287.42 355.204 287.32 354.772 287.12 354.404C286.92 354.036 286.648 353.756 286.304 353.564C285.968 353.364 285.596 353.264 285.188 353.264C284.78 353.264 284.408 353.36 284.072 353.552C283.736 353.744 283.468 354.024 283.268 354.392C283.068 354.76 282.968 355.192 282.968 355.688C282.968 356.192 283.068 356.632 283.268 357.008C283.468 357.376 283.736 357.66 284.072 357.86C284.408 358.052 284.78 358.148 285.188 358.148C285.596 358.148 285.968 358.052 286.304 357.86C286.648 357.66 286.92 357.376 287.12 357.008C287.32 356.632 287.42 356.196 287.42 355.7ZM296.033 352.424L292.073 362.096H290.945L292.241 358.928L289.589 352.424H290.801L292.865 357.752L294.905 352.424H296.033Z" fill="#6D6666"/>
<path d="M330.136 350.636V356.816C330.136 357.504 329.924 358.056 329.5 358.472C329.076 358.88 328.516 359.084 327.82 359.084C327.116 359.084 326.552 358.876 326.128 358.46C325.704 358.036 325.492 357.46 325.492 356.732H326.584C326.592 357.14 326.696 357.472 326.896 357.728C327.104 357.984 327.412 358.112 327.82 358.112C328.228 358.112 328.532 357.992 328.732 357.752C328.932 357.504 329.032 357.192 329.032 356.816V350.636H330.136ZM338.119 352.424V359H337.027V358.028C336.819 358.364 336.527 358.628 336.151 358.82C335.783 359.004 335.375 359.096 334.927 359.096C334.415 359.096 333.955 358.992 333.547 358.784C333.139 358.568 332.815 358.248 332.575 357.824C332.343 357.4 332.227 356.884 332.227 356.276V352.424H333.307V356.132C333.307 356.78 333.471 357.28 333.799 357.632C334.127 357.976 334.575 358.148 335.143 358.148C335.727 358.148 336.187 357.968 336.523 357.608C336.859 357.248 337.027 356.724 337.027 356.036V352.424H338.119ZM343.167 352.304C343.967 352.304 344.615 352.548 345.111 353.036C345.607 353.516 345.855 354.212 345.855 355.124V359H344.775V355.28C344.775 354.624 344.611 354.124 344.283 353.78C343.955 353.428 343.507 353.252 342.939 353.252C342.363 353.252 341.903 353.432 341.559 353.792C341.223 354.152 341.055 354.676 341.055 355.364V359H339.963V352.424H341.055V353.36C341.271 353.024 341.563 352.764 341.931 352.58C342.307 352.396 342.719 352.304 343.167 352.304Z" fill="#6D6666"/>
<path d="M380.136 350.636V356.816C380.136 357.504 379.924 358.056 379.5 358.472C379.076 358.88 378.516 359.084 377.82 359.084C377.116 359.084 376.552 358.876 376.128 358.46C375.704 358.036 375.492 357.46 375.492 356.732H376.584C376.592 357.14 376.696 357.472 376.896 357.728C377.104 357.984 377.412 358.112 377.82 358.112C378.228 358.112 378.532 357.992 378.732 357.752C378.932 357.504 379.032 357.192 379.032 356.816V350.636H380.136ZM388.119 352.424V359H387.027V358.028C386.819 358.364 386.527 358.628 386.151 358.82C385.783 359.004 385.375 359.096 384.927 359.096C384.415 359.096 383.955 358.992 383.547 358.784C383.139 358.568 382.815 358.248 382.575 357.824C382.343 357.4 382.227 356.884 382.227 356.276V352.424H383.307V356.132C383.307 356.78 383.471 357.28 383.799 357.632C384.127 357.976 384.575 358.148 385.143 358.148C385.727 358.148 386.187 357.968 386.523 357.608C386.859 357.248 387.027 356.724 387.027 356.036V352.424H388.119ZM391.055 350.12V359H389.963V350.12H391.055Z" fill="#6D6666"/>
<path d="M425.868 357.14H422.22L421.548 359H420.396L423.42 350.684H424.68L427.692 359H426.54L425.868 357.14ZM425.556 356.252L424.044 352.028L422.532 356.252H425.556ZM434.842 352.424V359H433.75V358.028C433.542 358.364 433.25 358.628 432.874 358.82C432.506 359.004 432.098 359.096 431.65 359.096C431.138 359.096 430.678 358.992 430.27 358.784C429.862 358.568 429.538 358.248 429.298 357.824C429.066 357.4 428.95 356.884 428.95 356.276V352.424H430.03V356.132C430.03 356.78 430.194 357.28 430.522 357.632C430.85 357.976 431.298 358.148 431.866 358.148C432.45 358.148 432.91 357.968 433.246 357.608C433.582 357.248 433.75 356.724 433.75 356.036V352.424H434.842ZM439.398 352.316C439.966 352.316 440.462 352.44 440.886 352.688C441.318 352.936 441.638 353.248 441.846 353.624V352.424H442.95V359.144C442.95 359.744 442.822 360.276 442.566 360.74C442.31 361.212 441.942 361.58 441.462 361.844C440.99 362.108 440.438 362.24 439.806 362.24C438.942 362.24 438.222 362.036 437.646 361.628C437.07 361.22 436.73 360.664 436.626 359.96H437.706C437.826 360.36 438.074 360.68 438.45 360.92C438.826 361.168 439.278 361.292 439.806 361.292C440.406 361.292 440.894 361.104 441.27 360.728C441.654 360.352 441.846 359.824 441.846 359.144V357.764C441.63 358.148 441.31 358.468 440.886 358.724C440.462 358.98 439.966 359.108 439.398 359.108C438.814 359.108 438.282 358.964 437.802 358.676C437.33 358.388 436.958 357.984 436.686 357.464C436.414 356.944 436.278 356.352 436.278 355.688C436.278 355.016 436.414 354.428 436.686 353.924C436.958 353.412 437.33 353.016 437.802 352.736C438.282 352.456 438.814 352.316 439.398 352.316ZM441.846 355.7C441.846 355.204 441.746 354.772 441.546 354.404C441.346 354.036 441.074 353.756 440.73 353.564C440.394 353.364 440.022 353.264 439.614 353.264C439.206 353.264 438.834 353.36 438.498 353.552C438.162 353.744 437.894 354.024 437.694 354.392C437.494 354.76 437.394 355.192 437.394 355.688C437.394 356.192 437.494 356.632 437.694 357.008C437.894 357.376 438.162 357.66 438.498 357.86C438.834 358.052 439.206 358.148 439.614 358.148C440.022 358.148 440.394 358.052 440.73 357.86C441.074 357.66 441.346 357.376 441.546 357.008C441.746 356.632 441.846 356.196 441.846 355.7Z" fill="#6D6666"/>
<path d="M475.576 359.084C475.024 359.084 474.528 358.988 474.088 358.796C473.656 358.596 473.316 358.324 473.068 357.98C472.82 357.628 472.692 357.224 472.684 356.768H473.848C473.888 357.16 474.048 357.492 474.328 357.764C474.616 358.028 475.032 358.16 475.576 358.16C476.096 358.16 476.504 358.032 476.8 357.776C477.104 357.512 477.256 357.176 477.256 356.768C477.256 356.448 477.168 356.188 476.992 355.988C476.816 355.788 476.596 355.636 476.332 355.532C476.068 355.428 475.712 355.316 475.264 355.196C474.712 355.052 474.268 354.908 473.932 354.764C473.604 354.62 473.32 354.396 473.08 354.092C472.848 353.78 472.732 353.364 472.732 352.844C472.732 352.388 472.848 351.984 473.08 351.632C473.312 351.28 473.636 351.008 474.052 350.816C474.476 350.624 474.96 350.528 475.504 350.528C476.288 350.528 476.928 350.724 477.424 351.116C477.928 351.508 478.212 352.028 478.276 352.676H477.076C477.036 352.356 476.868 352.076 476.572 351.836C476.276 351.588 475.884 351.464 475.396 351.464C474.94 351.464 474.568 351.584 474.28 351.824C473.992 352.056 473.848 352.384 473.848 352.808C473.848 353.112 473.932 353.36 474.1 353.552C474.276 353.744 474.488 353.892 474.736 353.996C474.992 354.092 475.348 354.204 475.804 354.332C476.356 354.484 476.8 354.636 477.136 354.788C477.472 354.932 477.76 355.16 478 355.472C478.24 355.776 478.36 356.192 478.36 356.72C478.36 357.128 478.252 357.512 478.036 357.872C477.82 358.232 477.5 358.524 477.076 358.748C476.652 358.972 476.152 359.084 475.576 359.084ZM485.967 355.46C485.967 355.668 485.955 355.888 485.931 356.12H480.675C480.715 356.768 480.935 357.276 481.335 357.644C481.743 358.004 482.235 358.184 482.811 358.184C483.283 358.184 483.675 358.076 483.987 357.86C484.307 357.636 484.531 357.34 484.659 356.972H485.835C485.659 357.604 485.307 358.12 484.779 358.52C484.251 358.912 483.595 359.108 482.811 359.108C482.187 359.108 481.627 358.968 481.131 358.688C480.643 358.408 480.259 358.012 479.979 357.5C479.699 356.98 479.559 356.38 479.559 355.7C479.559 355.02 479.695 354.424 479.967 353.912C480.239 353.4 480.619 353.008 481.107 352.736C481.603 352.456 482.171 352.316 482.811 352.316C483.435 352.316 483.987 352.452 484.467 352.724C484.947 352.996 485.315 353.372 485.571 353.852C485.835 354.324 485.967 354.86 485.967 355.46ZM484.839 355.232C484.839 354.816 484.747 354.46 484.563 354.164C484.379 353.86 484.127 353.632 483.807 353.48C483.495 353.32 483.147 353.24 482.763 353.24C482.211 353.24 481.739 353.416 481.347 353.768C480.963 354.12 480.743 354.608 480.687 355.232H484.839ZM488.5 353.636C488.716 353.26 489.036 352.948 489.46 352.7C489.892 352.444 490.392 352.316 490.96 352.316C491.544 352.316 492.072 352.456 492.544 352.736C493.024 353.016 493.4 353.412 493.672 353.924C493.944 354.428 494.08 355.016 494.08 355.688C494.08 356.352 493.944 356.944 493.672 357.464C493.4 357.984 493.024 358.388 492.544 358.676C492.072 358.964 491.544 359.108 490.96 359.108C490.4 359.108 489.904 358.984 489.472 358.736C489.048 358.48 488.724 358.164 488.5 357.788V362.12H487.408V352.424H488.5V353.636ZM492.964 355.688C492.964 355.192 492.864 354.76 492.664 354.392C492.464 354.024 492.192 353.744 491.848 353.552C491.512 353.36 491.14 353.264 490.732 353.264C490.332 353.264 489.96 353.364 489.616 353.564C489.28 353.756 489.008 354.04 488.8 354.416C488.6 354.784 488.5 355.212 488.5 355.7C488.5 356.196 488.6 356.632 488.8 357.008C489.008 357.376 489.28 357.66 489.616 357.86C489.96 358.052 490.332 358.148 490.732 358.148C491.14 358.148 491.512 358.052 491.848 357.86C492.192 357.66 492.464 357.376 492.664 357.008C492.864 356.632 492.964 356.192 492.964 355.688Z" fill="#6D6666"/>
<path d="M528.169 359.084C527.393 359.084 526.685 358.904 526.045 358.544C525.405 358.176 524.897 357.668 524.521 357.02C524.153 356.364 523.969 355.628 523.969 354.812C523.969 353.996 524.153 353.264 524.521 352.616C524.897 351.96 525.405 351.452 526.045 351.092C526.685 350.724 527.393 350.54 528.169 350.54C528.953 350.54 529.665 350.724 530.305 351.092C530.945 351.452 531.449 351.956 531.817 352.604C532.185 353.252 532.369 353.988 532.369 354.812C532.369 355.636 532.185 356.372 531.817 357.02C531.449 357.668 530.945 358.176 530.305 358.544C529.665 358.904 528.953 359.084 528.169 359.084ZM528.169 358.136C528.753 358.136 529.277 358 529.741 357.728C530.213 357.456 530.581 357.068 530.845 356.564C531.117 356.06 531.253 355.476 531.253 354.812C531.253 354.14 531.117 353.556 530.845 353.06C530.581 352.556 530.217 352.168 529.753 351.896C529.289 351.624 528.761 351.488 528.169 351.488C527.577 351.488 527.049 351.624 526.585 351.896C526.121 352.168 525.753 352.556 525.481 353.06C525.217 353.556 525.085 354.14 525.085 354.812C525.085 355.476 525.217 356.06 525.481 356.564C525.753 357.068 526.121 357.456 526.585 357.728C527.057 358 527.585 358.136 528.169 358.136ZM533.403 355.7C533.403 355.02 533.539 354.428 533.811 353.924C534.083 353.412 534.459 353.016 534.939 352.736C535.427 352.456 535.983 352.316 536.607 352.316C537.415 352.316 538.079 352.512 538.599 352.904C539.127 353.296 539.475 353.84 539.643 354.536H538.467C538.355 354.136 538.135 353.82 537.807 353.588C537.487 353.356 537.087 353.24 536.607 353.24C535.983 353.24 535.479 353.456 535.095 353.888C534.711 354.312 534.519 354.916 534.519 355.7C534.519 356.492 534.711 357.104 535.095 357.536C535.479 357.968 535.983 358.184 536.607 358.184C537.087 358.184 537.487 358.072 537.807 357.848C538.127 357.624 538.347 357.304 538.467 356.888H539.643C539.467 357.56 539.115 358.1 538.587 358.508C538.059 358.908 537.399 359.108 536.607 359.108C535.983 359.108 535.427 358.968 534.939 358.688C534.459 358.408 534.083 358.012 533.811 357.5C533.539 356.988 533.403 356.388 533.403 355.7ZM542.432 353.324V357.2C542.432 357.52 542.5 357.748 542.636 357.884C542.772 358.012 543.008 358.076 543.344 358.076H544.148V359H543.164C542.556 359 542.1 358.86 541.796 358.58C541.492 358.3 541.34 357.84 541.34 357.2V353.324H540.488V352.424H541.34V350.768H542.432V352.424H544.148V353.324H542.432Z" fill="#6D6666"/>
</svg>
