<svg width="569" height="386" viewBox="0 0 569 386" fill="none" xmlns="http://www.w3.org/2000/svg">
<rect width="569" height="386" rx="8" fill="white"/>
<path d="M26.0279 35.34H20.4679L19.5479 38H16.6079L21.6279 24.02H24.8879L29.9079 38H26.9479L26.0279 35.34ZM25.2679 33.1L23.2479 27.26L21.2279 33.1H25.2679ZM31.0643 32.42C31.0643 31.3 31.2843 30.3067 31.7243 29.44C32.1776 28.5733 32.791 27.9067 33.5643 27.44C34.3376 26.9733 35.1976 26.74 36.1443 26.74C36.8643 26.74 37.551 26.9 38.2043 27.22C38.8576 27.5267 39.3776 27.94 39.7643 28.46V23.2H42.6043V38H39.7643V36.36C39.4176 36.9067 38.931 37.3467 38.3043 37.68C37.6776 38.0133 36.951 38.18 36.1243 38.18C35.191 38.18 34.3376 37.94 33.5643 37.46C32.791 36.98 32.1776 36.3067 31.7243 35.44C31.2843 34.56 31.0643 33.5533 31.0643 32.42ZM39.7843 32.46C39.7843 31.78 39.651 31.2 39.3843 30.72C39.1176 30.2267 38.7576 29.8533 38.3043 29.6C37.851 29.3333 37.3643 29.2 36.8443 29.2C36.3243 29.2 35.8443 29.3267 35.4043 29.58C34.9643 29.8333 34.6043 30.2067 34.3243 30.7C34.0576 31.18 33.9243 31.7533 33.9243 32.42C33.9243 33.0867 34.0576 33.6733 34.3243 34.18C34.6043 34.6733 34.9643 35.0533 35.4043 35.32C35.8576 35.5867 36.3376 35.72 36.8443 35.72C37.3643 35.72 37.851 35.5933 38.3043 35.34C38.7576 35.0733 39.1176 34.7 39.3843 34.22C39.651 33.7267 39.7843 33.14 39.7843 32.46ZM60.2846 28.36C60.2846 29.1067 60.1046 29.8067 59.7446 30.46C59.3979 31.1133 58.8446 31.64 58.0846 32.04C57.3379 32.44 56.3913 32.64 55.2446 32.64H52.9046V38H50.1046V24.04H55.2446C56.3246 24.04 57.2446 24.2267 58.0046 24.6C58.7646 24.9733 59.3313 25.4867 59.7046 26.14C60.0913 26.7933 60.2846 27.5333 60.2846 28.36ZM55.1246 30.38C55.8979 30.38 56.4713 30.2067 56.8446 29.86C57.2179 29.5 57.4046 29 57.4046 28.36C57.4046 27 56.6446 26.32 55.1246 26.32H52.9046V30.38H55.1246ZM67.1926 38.18C66.1259 38.18 65.1659 37.9467 64.3126 37.48C63.4592 37 62.7859 36.3267 62.2926 35.46C61.8126 34.5933 61.5726 33.5933 61.5726 32.46C61.5726 31.3267 61.8192 30.3267 62.3126 29.46C62.8192 28.5933 63.5059 27.9267 64.3726 27.46C65.2392 26.98 66.2059 26.74 67.2726 26.74C68.3392 26.74 69.3059 26.98 70.1726 27.46C71.0392 27.9267 71.7192 28.5933 72.2126 29.46C72.7192 30.3267 72.9726 31.3267 72.9726 32.46C72.9726 33.5933 72.7126 34.5933 72.1926 35.46C71.6859 36.3267 70.9926 37 70.1126 37.48C69.2459 37.9467 68.2726 38.18 67.1926 38.18ZM67.1926 35.74C67.6992 35.74 68.1726 35.62 68.6126 35.38C69.0659 35.1267 69.4259 34.7533 69.6926 34.26C69.9592 33.7667 70.0926 33.1667 70.0926 32.46C70.0926 31.4067 69.8126 30.6 69.2526 30.04C68.7059 29.4667 68.0326 29.18 67.2326 29.18C66.4326 29.18 65.7592 29.4667 65.2126 30.04C64.6792 30.6 64.4126 31.4067 64.4126 32.46C64.4126 33.5133 64.6726 34.3267 65.1926 34.9C65.7259 35.46 66.3926 35.74 67.1926 35.74ZM79.2665 38.18C78.3598 38.18 77.5465 38.02 76.8265 37.7C76.1065 37.3667 75.5332 36.92 75.1065 36.36C74.6932 35.8 74.4665 35.18 74.4265 34.5H77.2465C77.2998 34.9267 77.5065 35.28 77.8665 35.56C78.2398 35.84 78.6998 35.98 79.2465 35.98C79.7798 35.98 80.1932 35.8733 80.4865 35.66C80.7932 35.4467 80.9465 35.1733 80.9465 34.84C80.9465 34.48 80.7598 34.2133 80.3865 34.04C80.0265 33.8533 79.4465 33.6533 78.6465 33.44C77.8198 33.24 77.1398 33.0333 76.6065 32.82C76.0865 32.6067 75.6332 32.28 75.2465 31.84C74.8732 31.4 74.6865 30.8067 74.6865 30.06C74.6865 29.4467 74.8598 28.8867 75.2065 28.38C75.5665 27.8733 76.0732 27.4733 76.7265 27.18C77.3932 26.8867 78.1732 26.74 79.0665 26.74C80.3865 26.74 81.4398 27.0733 82.2265 27.74C83.0132 28.3933 83.4465 29.28 83.5265 30.4H80.8465C80.8065 29.96 80.6198 29.6133 80.2865 29.36C79.9665 29.0933 79.5332 28.96 78.9865 28.96C78.4798 28.96 78.0865 29.0533 77.8065 29.24C77.5398 29.4267 77.4065 29.6867 77.4065 30.02C77.4065 30.3933 77.5932 30.68 77.9665 30.88C78.3398 31.0667 78.9198 31.26 79.7065 31.46C80.5065 31.66 81.1665 31.8667 81.6865 32.08C82.2065 32.2933 82.6532 32.6267 83.0265 33.08C83.4132 33.52 83.6132 34.1067 83.6265 34.84C83.6265 35.48 83.4465 36.0533 83.0865 36.56C82.7398 37.0667 82.2332 37.4667 81.5665 37.76C80.9132 38.04 80.1465 38.18 79.2665 38.18ZM89.1849 29.22V34.58C89.1849 34.9533 89.2716 35.2267 89.4449 35.4C89.6316 35.56 89.9383 35.64 90.3649 35.64H91.6649V38H89.9049C87.5449 38 86.3649 36.8533 86.3649 34.56V29.22H85.0449V26.92H86.3649V24.18H89.1849V26.92H91.6649V29.22H89.1849ZM95.0988 25.6C94.6055 25.6 94.1922 25.4467 93.8588 25.14C93.5388 24.82 93.3788 24.4267 93.3788 23.96C93.3788 23.4933 93.5388 23.1067 93.8588 22.8C94.1922 22.48 94.6055 22.32 95.0988 22.32C95.5922 22.32 95.9988 22.48 96.3188 22.8C96.6522 23.1067 96.8188 23.4933 96.8188 23.96C96.8188 24.4267 96.6522 24.82 96.3188 25.14C95.9988 25.4467 95.5922 25.6 95.0988 25.6ZM96.4788 26.92V38H93.6788V26.92H96.4788ZM105.385 26.76C106.705 26.76 107.772 27.18 108.585 28.02C109.399 28.8467 109.805 30.0067 109.805 31.5V38H107.005V31.88C107.005 31 106.785 30.3267 106.345 29.86C105.905 29.38 105.305 29.14 104.545 29.14C103.772 29.14 103.159 29.38 102.705 29.86C102.265 30.3267 102.045 31 102.045 31.88V38H99.2452V26.92H102.045V28.3C102.419 27.82 102.892 27.4467 103.465 27.18C104.052 26.9 104.692 26.76 105.385 26.76ZM116.808 26.74C117.635 26.74 118.361 26.9067 118.988 27.24C119.615 27.56 120.108 27.98 120.468 28.5V26.92H123.288V38.08C123.288 39.1067 123.081 40.02 122.668 40.82C122.255 41.6333 121.635 42.2733 120.808 42.74C119.981 43.22 118.981 43.46 117.808 43.46C116.235 43.46 114.941 43.0933 113.928 42.36C112.928 41.6267 112.361 40.6267 112.228 39.36H115.008C115.155 39.8667 115.468 40.2667 115.948 40.56C116.441 40.8667 117.035 41.02 117.728 41.02C118.541 41.02 119.201 40.7733 119.708 40.28C120.215 39.8 120.468 39.0667 120.468 38.08V36.36C120.108 36.88 119.608 37.3133 118.968 37.66C118.341 38.0067 117.621 38.18 116.808 38.18C115.875 38.18 115.021 37.94 114.248 37.46C113.475 36.98 112.861 36.3067 112.408 35.44C111.968 34.56 111.748 33.5533 111.748 32.42C111.748 31.3 111.968 30.3067 112.408 29.44C112.861 28.5733 113.468 27.9067 114.228 27.44C115.001 26.9733 115.861 26.74 116.808 26.74ZM120.468 32.46C120.468 31.78 120.335 31.2 120.068 30.72C119.801 30.2267 119.441 29.8533 118.988 29.6C118.535 29.3333 118.048 29.2 117.528 29.2C117.008 29.2 116.528 29.3267 116.088 29.58C115.648 29.8333 115.288 30.2067 115.008 30.7C114.741 31.18 114.608 31.7533 114.608 32.42C114.608 33.0867 114.741 33.6733 115.008 34.18C115.288 34.6733 115.648 35.0533 116.088 35.32C116.541 35.5867 117.021 35.72 117.528 35.72C118.048 35.72 118.535 35.5933 118.988 35.34C119.441 35.0733 119.801 34.7 120.068 34.22C120.335 33.7267 120.468 33.14 120.468 32.46ZM142.368 24.04V38H139.568V32.06H133.588V38H130.788V24.04H133.588V29.78H139.568V24.04H142.368ZM146.544 25.6C146.051 25.6 145.637 25.4467 145.304 25.14C144.984 24.82 144.824 24.4267 144.824 23.96C144.824 23.4933 144.984 23.1067 145.304 22.8C145.637 22.48 146.051 22.32 146.544 22.32C147.037 22.32 147.444 22.48 147.764 22.8C148.097 23.1067 148.264 23.4933 148.264 23.96C148.264 24.4267 148.097 24.82 147.764 25.14C147.444 25.4467 147.037 25.6 146.544 25.6ZM147.924 26.92V38H145.124V26.92H147.924ZM154.931 38.18C154.024 38.18 153.211 38.02 152.491 37.7C151.771 37.3667 151.197 36.92 150.771 36.36C150.357 35.8 150.131 35.18 150.091 34.5H152.911C152.964 34.9267 153.171 35.28 153.531 35.56C153.904 35.84 154.364 35.98 154.911 35.98C155.444 35.98 155.857 35.8733 156.151 35.66C156.457 35.4467 156.611 35.1733 156.611 34.84C156.611 34.48 156.424 34.2133 156.051 34.04C155.691 33.8533 155.111 33.6533 154.311 33.44C153.484 33.24 152.804 33.0333 152.271 32.82C151.751 32.6067 151.297 32.28 150.911 31.84C150.537 31.4 150.351 30.8067 150.351 30.06C150.351 29.4467 150.524 28.8867 150.871 28.38C151.231 27.8733 151.737 27.4733 152.391 27.18C153.057 26.8867 153.837 26.74 154.731 26.74C156.051 26.74 157.104 27.0733 157.891 27.74C158.677 28.3933 159.111 29.28 159.191 30.4H156.511C156.471 29.96 156.284 29.6133 155.951 29.36C155.631 29.0933 155.197 28.96 154.651 28.96C154.144 28.96 153.751 29.0533 153.471 29.24C153.204 29.4267 153.071 29.6867 153.071 30.02C153.071 30.3933 153.257 30.68 153.631 30.88C154.004 31.0667 154.584 31.26 155.371 31.46C156.171 31.66 156.831 31.8667 157.351 32.08C157.871 32.2933 158.317 32.6267 158.691 33.08C159.077 33.52 159.277 34.1067 159.291 34.84C159.291 35.48 159.111 36.0533 158.751 36.56C158.404 37.0667 157.897 37.4667 157.231 37.76C156.577 38.04 155.811 38.18 154.931 38.18ZM164.849 29.22V34.58C164.849 34.9533 164.936 35.2267 165.109 35.4C165.296 35.56 165.602 35.64 166.029 35.64H167.329V38H165.569C163.209 38 162.029 36.8533 162.029 34.56V29.22H160.709V26.92H162.029V24.18H164.849V26.92H167.329V29.22H164.849ZM174.263 38.18C173.196 38.18 172.236 37.9467 171.383 37.48C170.53 37 169.856 36.3267 169.363 35.46C168.883 34.5933 168.643 33.5933 168.643 32.46C168.643 31.3267 168.89 30.3267 169.383 29.46C169.89 28.5933 170.576 27.9267 171.443 27.46C172.31 26.98 173.276 26.74 174.343 26.74C175.41 26.74 176.376 26.98 177.243 27.46C178.11 27.9267 178.79 28.5933 179.283 29.46C179.79 30.3267 180.043 31.3267 180.043 32.46C180.043 33.5933 179.783 34.5933 179.263 35.46C178.756 36.3267 178.063 37 177.183 37.48C176.316 37.9467 175.343 38.18 174.263 38.18ZM174.263 35.74C174.77 35.74 175.243 35.62 175.683 35.38C176.136 35.1267 176.496 34.7533 176.763 34.26C177.03 33.7667 177.163 33.1667 177.163 32.46C177.163 31.4067 176.883 30.6 176.323 30.04C175.776 29.4667 175.103 29.18 174.303 29.18C173.503 29.18 172.83 29.4667 172.283 30.04C171.75 30.6 171.483 31.4067 171.483 32.46C171.483 33.5133 171.743 34.3267 172.263 34.9C172.796 35.46 173.463 35.74 174.263 35.74ZM184.897 28.64C185.257 28.0533 185.723 27.5933 186.297 27.26C186.883 26.9267 187.55 26.76 188.297 26.76V29.7H187.557C186.677 29.7 186.01 29.9067 185.557 30.32C185.117 30.7333 184.897 31.4533 184.897 32.48V38H182.097V26.92H184.897V28.64ZM200.783 26.92L193.923 43.24H190.943L193.343 37.72L188.903 26.92H192.043L194.903 34.66L197.803 26.92H200.783Z" fill="black"/>
<path d="M507.416 19.44C508.008 19.44 508.525 19.5547 508.968 19.784C509.416 20.008 509.76 20.3333 510 20.76C510.245 21.1813 510.368 21.6747 510.368 22.24C510.368 22.8053 510.245 23.296 510 23.712C509.76 24.128 509.416 24.448 508.968 24.672C508.525 24.8907 508.008 25 507.416 25H505.6V19.44H507.416ZM507.416 24.256C508.067 24.256 508.565 24.08 508.912 23.728C509.259 23.376 509.432 22.88 509.432 22.24C509.432 21.5947 509.259 21.0907 508.912 20.728C508.565 20.3653 508.067 20.184 507.416 20.184H506.512V24.256H507.416ZM510.968 22.776C510.968 22.3333 511.059 21.9413 511.24 21.6C511.427 21.2587 511.677 20.9947 511.992 20.808C512.312 20.616 512.664 20.52 513.048 20.52C513.395 20.52 513.696 20.5893 513.952 20.728C514.213 20.8613 514.421 21.0293 514.576 21.232V20.592H515.496V25H514.576V24.344C514.421 24.552 514.211 24.7253 513.944 24.864C513.677 25.0027 513.373 25.072 513.032 25.072C512.653 25.072 512.307 24.976 511.992 24.784C511.677 24.5867 511.427 24.3147 511.24 23.968C511.059 23.616 510.968 23.2187 510.968 22.776ZM514.576 22.792C514.576 22.488 514.512 22.224 514.384 22C514.261 21.776 514.099 21.6053 513.896 21.488C513.693 21.3707 513.475 21.312 513.24 21.312C513.005 21.312 512.787 21.3707 512.584 21.488C512.381 21.6 512.216 21.768 512.088 21.992C511.965 22.2107 511.904 22.472 511.904 22.776C511.904 23.08 511.965 23.3467 512.088 23.576C512.216 23.8053 512.381 23.9813 512.584 24.104C512.792 24.2213 513.011 24.28 513.24 24.28C513.475 24.28 513.693 24.2213 513.896 24.104C514.099 23.9867 514.261 23.816 514.384 23.592C514.512 23.3627 514.576 23.096 514.576 22.792ZM517.758 21.336V23.776C517.758 23.9413 517.795 24.0613 517.87 24.136C517.95 24.2053 518.083 24.24 518.27 24.24H518.83V25H518.11C517.699 25 517.384 24.904 517.166 24.712C516.947 24.52 516.838 24.208 516.838 23.776V21.336H516.318V20.592H516.838V19.496H517.758V20.592H518.83V21.336H517.758ZM519.366 22.776C519.366 22.3333 519.457 21.9413 519.638 21.6C519.825 21.2587 520.076 20.9947 520.39 20.808C520.71 20.616 521.062 20.52 521.446 20.52C521.793 20.52 522.094 20.5893 522.35 20.728C522.612 20.8613 522.82 21.0293 522.974 21.232V20.592H523.894V25H522.974V24.344C522.82 24.552 522.609 24.7253 522.342 24.864C522.076 25.0027 521.772 25.072 521.43 25.072C521.052 25.072 520.705 24.976 520.39 24.784C520.076 24.5867 519.825 24.3147 519.638 23.968C519.457 23.616 519.366 23.2187 519.366 22.776ZM522.974 22.792C522.974 22.488 522.91 22.224 522.782 22C522.66 21.776 522.497 21.6053 522.294 21.488C522.092 21.3707 521.873 21.312 521.638 21.312C521.404 21.312 521.185 21.3707 520.982 21.488C520.78 21.6 520.614 21.768 520.486 21.992C520.364 22.2107 520.302 22.472 520.302 22.776C520.302 23.08 520.364 23.3467 520.486 23.576C520.614 23.8053 520.78 23.9813 520.982 24.104C521.19 24.2213 521.409 24.28 521.638 24.28C521.873 24.28 522.092 24.2213 522.294 24.104C522.497 23.9867 522.66 23.816 522.782 23.592C522.91 23.3627 522.974 23.096 522.974 22.792ZM530.058 25L528.778 22.776H528.082V25H527.17V19.44H529.09C529.517 19.44 529.877 19.5147 530.17 19.664C530.469 19.8133 530.69 20.0133 530.834 20.264C530.984 20.5147 531.058 20.7947 531.058 21.104C531.058 21.4667 530.952 21.7973 530.738 22.096C530.53 22.3893 530.208 22.5893 529.77 22.696L531.146 25H530.058ZM528.082 22.048H529.09C529.432 22.048 529.688 21.9627 529.858 21.792C530.034 21.6213 530.122 21.392 530.122 21.104C530.122 20.816 530.037 20.592 529.866 20.432C529.696 20.2667 529.437 20.184 529.09 20.184H528.082V22.048ZM531.921 22.776C531.921 22.3333 532.012 21.9413 532.193 21.6C532.38 21.2587 532.63 20.9947 532.945 20.808C533.265 20.616 533.617 20.52 534.001 20.52C534.348 20.52 534.649 20.5893 534.905 20.728C535.166 20.8613 535.374 21.0293 535.529 21.232V20.592H536.449V25H535.529V24.344C535.374 24.552 535.164 24.7253 534.897 24.864C534.63 25.0027 534.326 25.072 533.985 25.072C533.606 25.072 533.26 24.976 532.945 24.784C532.63 24.5867 532.38 24.3147 532.193 23.968C532.012 23.616 531.921 23.2187 531.921 22.776ZM535.529 22.792C535.529 22.488 535.465 22.224 535.337 22C535.214 21.776 535.052 21.6053 534.849 21.488C534.646 21.3707 534.428 21.312 534.193 21.312C533.958 21.312 533.74 21.3707 533.537 21.488C533.334 21.6 533.169 21.768 533.041 21.992C532.918 22.2107 532.857 22.472 532.857 22.776C532.857 23.08 532.918 23.3467 533.041 23.576C533.169 23.8053 533.334 23.9813 533.537 24.104C533.745 24.2213 533.964 24.28 534.193 24.28C534.428 24.28 534.646 24.2213 534.849 24.104C535.052 23.9867 535.214 23.816 535.337 23.592C535.465 23.3627 535.529 23.096 535.529 22.792ZM539.871 20.52C540.218 20.52 540.527 20.592 540.799 20.736C541.076 20.88 541.292 21.0933 541.447 21.376C541.602 21.6587 541.679 22 541.679 22.4V25H540.775V22.536C540.775 22.1413 540.676 21.84 540.479 21.632C540.282 21.4187 540.012 21.312 539.671 21.312C539.33 21.312 539.058 21.4187 538.855 21.632C538.658 21.84 538.559 22.1413 538.559 22.536V25H537.647V20.592H538.559V21.096C538.708 20.9147 538.898 20.7733 539.127 20.672C539.362 20.5707 539.61 20.52 539.871 20.52ZM544.618 20.52C544.96 20.52 545.261 20.5893 545.522 20.728C545.789 20.8613 545.997 21.0293 546.146 21.232V20.592H547.066V25.072C547.066 25.4773 546.981 25.8373 546.81 26.152C546.64 26.472 546.392 26.7227 546.066 26.904C545.746 27.0853 545.362 27.176 544.914 27.176C544.317 27.176 543.821 27.0347 543.426 26.752C543.032 26.4747 542.808 26.096 542.754 25.616H543.658C543.728 25.8453 543.874 26.0293 544.098 26.168C544.328 26.312 544.6 26.384 544.914 26.384C545.282 26.384 545.578 26.272 545.802 26.048C546.032 25.824 546.146 25.4987 546.146 25.072V24.336C545.992 24.544 545.781 24.72 545.514 24.864C545.253 25.0027 544.954 25.072 544.618 25.072C544.234 25.072 543.882 24.976 543.562 24.784C543.248 24.5867 542.997 24.3147 542.81 23.968C542.629 23.616 542.538 23.2187 542.538 22.776C542.538 22.3333 542.629 21.9413 542.81 21.6C542.997 21.2587 543.248 20.9947 543.562 20.808C543.882 20.616 544.234 20.52 544.618 20.52ZM546.146 22.792C546.146 22.488 546.082 22.224 545.954 22C545.832 21.776 545.669 21.6053 545.466 21.488C545.264 21.3707 545.045 21.312 544.81 21.312C544.576 21.312 544.357 21.3707 544.154 21.488C543.952 21.6 543.786 21.768 543.658 21.992C543.536 22.2107 543.474 22.472 543.474 22.776C543.474 23.08 543.536 23.3467 543.658 23.576C543.786 23.8053 543.952 23.9813 544.154 24.104C544.362 24.2213 544.581 24.28 544.81 24.28C545.045 24.28 545.264 24.2213 545.466 24.104C545.669 23.9867 545.832 23.816 545.954 23.592C546.082 23.3627 546.146 23.096 546.146 22.792ZM552.304 22.688C552.304 22.8533 552.293 23.0027 552.272 23.136H548.904C548.931 23.488 549.061 23.7707 549.296 23.984C549.531 24.1973 549.819 24.304 550.16 24.304C550.651 24.304 550.997 24.0987 551.2 23.688H552.184C552.051 24.0933 551.808 24.4267 551.456 24.688C551.109 24.944 550.677 25.072 550.16 25.072C549.739 25.072 549.36 24.9787 549.024 24.792C548.693 24.6 548.432 24.3333 548.24 23.992C548.053 23.6453 547.96 23.2453 547.96 22.792C547.96 22.3387 548.051 21.9413 548.232 21.6C548.419 21.2533 548.677 20.9867 549.008 20.8C549.344 20.6133 549.728 20.52 550.16 20.52C550.576 20.52 550.947 20.6107 551.272 20.792C551.597 20.9733 551.851 21.2293 552.032 21.56C552.213 21.8853 552.304 22.2613 552.304 22.688ZM551.352 22.4C551.347 22.064 551.227 21.7947 550.992 21.592C550.757 21.3893 550.467 21.288 550.12 21.288C549.805 21.288 549.536 21.3893 549.312 21.592C549.088 21.7893 548.955 22.0587 548.912 22.4H551.352Z" fill="#414141"/>
<path d="M551 39.5H545" stroke="#292D32" stroke-width="1.5" stroke-miterlimit="10" stroke-linecap="round" stroke-linejoin="round"/>
<path d="M535 39.5H531" stroke="#292D32" stroke-width="1.5" stroke-miterlimit="10" stroke-linecap="round" stroke-linejoin="round"/>
<path d="M539 43C540.933 43 542.5 41.433 542.5 39.5C542.5 37.567 540.933 36 539 36C537.067 36 535.5 37.567 535.5 39.5C535.5 41.433 537.067 43 539 43Z" stroke="#292D32" stroke-width="1.5" stroke-miterlimit="10" stroke-linecap="round" stroke-linejoin="round"/>
<path d="M551 50.5H547" stroke="#292D32" stroke-width="1.5" stroke-miterlimit="10" stroke-linecap="round" stroke-linejoin="round"/>
<path d="M537 50.5H531" stroke="#292D32" stroke-width="1.5" stroke-miterlimit="10" stroke-linecap="round" stroke-linejoin="round"/>
<path d="M543 54C544.933 54 546.5 52.433 546.5 50.5C546.5 48.567 544.933 47 543 47C541.067 47 539.5 48.567 539.5 50.5C539.5 52.433 541.067 54 543 54Z" stroke="#292D32" stroke-width="1.5" stroke-miterlimit="10" stroke-linecap="round" stroke-linejoin="round"/>
<rect x="388.07" y="83" width="36.835" height="2" rx="1" fill="#0275FF"/>
<path d="M444.273 79.636L444.273 88L443.181 88L443.181 84.208L438.921 84.208L438.921 88L437.829 88L437.829 79.636L438.921 79.636L438.921 83.308L443.181 83.308L443.181 79.636L444.273 79.636ZM447.038 80.356C446.83 80.356 446.654 80.284 446.51 80.14C446.366 79.996 446.294 79.82 446.294 79.612C446.294 79.404 446.366 79.228 446.51 79.084C446.654 78.94 446.83 78.868 447.038 78.868C447.238 78.868 447.406 78.94 447.542 79.084C447.686 79.228 447.758 79.404 447.758 79.612C447.758 79.82 447.686 79.996 447.542 80.14C447.406 80.284 447.238 80.356 447.038 80.356ZM447.566 81.424L447.566 88L446.474 88L446.474 81.424L447.566 81.424ZM452.476 81.316C453.044 81.316 453.54 81.44 453.964 81.688C454.396 81.936 454.716 82.248 454.924 82.624L454.924 81.424L456.028 81.424L456.028 88.144C456.028 88.744 455.9 89.276 455.644 89.74C455.388 90.212 455.02 90.58 454.54 90.844C454.068 91.108 453.516 91.24 452.884 91.24C452.02 91.24 451.3 91.036 450.724 90.628C450.148 90.22 449.808 89.664 449.704 88.96L450.784 88.96C450.904 89.36 451.152 89.68 451.528 89.92C451.904 90.168 452.356 90.292 452.884 90.292C453.484 90.292 453.972 90.104 454.348 89.728C454.732 89.352 454.924 88.824 454.924 88.144L454.924 86.764C454.708 87.148 454.388 87.468 453.964 87.724C453.54 87.98 453.044 88.108 452.476 88.108C451.892 88.108 451.36 87.964 450.88 87.676C450.408 87.388 450.036 86.984 449.764 86.464C449.492 85.944 449.356 85.352 449.356 84.688C449.356 84.016 449.492 83.428 449.764 82.924C450.036 82.412 450.408 82.016 450.88 81.736C451.36 81.456 451.892 81.316 452.476 81.316ZM454.924 84.7C454.924 84.204 454.824 83.772 454.624 83.404C454.424 83.036 454.152 82.756 453.808 82.564C453.472 82.364 453.1 82.264 452.692 82.264C452.284 82.264 451.912 82.36 451.576 82.552C451.24 82.744 450.972 83.024 450.772 83.392C450.572 83.76 450.472 84.192 450.472 84.688C450.472 85.192 450.572 85.632 450.772 86.008C450.972 86.376 451.24 86.66 451.576 86.86C451.912 87.052 452.284 87.148 452.692 87.148C453.1 87.148 453.472 87.052 453.808 86.86C454.152 86.66 454.424 86.376 454.624 86.008C454.824 85.632 454.924 85.196 454.924 84.7ZM461.474 81.304C461.97 81.304 462.418 81.412 462.818 81.628C463.218 81.836 463.53 82.152 463.754 82.576C463.986 83 464.102 83.516 464.102 84.124L464.102 88L463.022 88L463.022 84.28C463.022 83.624 462.858 83.124 462.53 82.78C462.202 82.428 461.754 82.252 461.186 82.252C460.61 82.252 460.15 82.432 459.806 82.792C459.47 83.152 459.302 83.676 459.302 84.364L459.302 88L458.21 88L458.21 79.12L459.302 79.12L459.302 82.36C459.518 82.024 459.814 81.764 460.19 81.58C460.574 81.396 461.002 81.304 461.474 81.304Z" fill="#667085"/>
<rect x="480.165" y="83" width="36.835" height="2" rx="1" fill="#FF9800"/>
<path d="M531.016 87.112L533.944 87.112L533.944 88L529.924 88L529.924 79.636L531.016 79.636L531.016 87.112ZM538.308 88.108C537.692 88.108 537.132 87.968 536.628 87.688C536.132 87.408 535.74 87.012 535.452 86.5C535.172 85.98 535.032 85.38 535.032 84.7C535.032 84.028 535.176 83.436 535.464 82.924C535.76 82.404 536.16 82.008 536.664 81.736C537.168 81.456 537.732 81.316 538.356 81.316C538.98 81.316 539.544 81.456 540.048 81.736C540.552 82.008 540.948 82.4 541.236 82.912C541.532 83.424 541.68 84.02 541.68 84.7C541.68 85.38 541.528 85.98 541.224 86.5C540.928 87.012 540.524 87.408 540.012 87.688C539.5 87.968 538.932 88.108 538.308 88.108ZM538.308 87.148C538.7 87.148 539.068 87.056 539.412 86.872C539.756 86.688 540.032 86.412 540.24 86.044C540.456 85.676 540.564 85.228 540.564 84.7C540.564 84.172 540.46 83.724 540.252 83.356C540.044 82.988 539.772 82.716 539.436 82.54C539.1 82.356 538.736 82.264 538.344 82.264C537.944 82.264 537.576 82.356 537.24 82.54C536.912 82.716 536.648 82.988 536.448 83.356C536.248 83.724 536.148 84.172 536.148 84.7C536.148 85.236 536.244 85.688 536.436 86.056C536.636 86.424 536.9 86.7 537.228 86.884C537.556 87.06 537.916 87.148 538.308 87.148ZM552.213 81.424L550.161 88L549.033 88L547.449 82.78L545.865 88L544.737 88L542.673 81.424L543.789 81.424L545.301 86.944L546.933 81.424L548.049 81.424L549.645 86.956L551.133 81.424L552.213 81.424Z" fill="#667085"/>
<path d="M19.104 102.984C18.5067 102.749 18.048 102.408 17.728 101.96C17.408 101.512 17.248 100.968 17.248 100.328C17.248 99.752 17.392 99.2347 17.68 98.776C17.968 98.3067 18.3947 97.9387 18.96 97.672C19.536 97.3947 20.2293 97.256 21.04 97.256C21.8507 97.256 22.5387 97.3947 23.104 97.672C23.68 97.9387 24.112 98.3067 24.4 98.776C24.6987 99.2347 24.848 99.752 24.848 100.328C24.848 100.947 24.6827 101.491 24.352 101.96C24.0213 102.419 23.568 102.76 22.992 102.984C23.6533 103.187 24.176 103.544 24.56 104.056C24.9547 104.557 25.152 105.165 25.152 105.88C25.152 106.573 24.9813 107.181 24.64 107.704C24.2987 108.216 23.8133 108.616 23.184 108.904C22.5653 109.181 21.8507 109.32 21.04 109.32C20.2293 109.32 19.5147 109.181 18.896 108.904C18.288 108.616 17.8133 108.216 17.472 107.704C17.1307 107.181 16.96 106.573 16.96 105.88C16.96 105.165 17.152 104.552 17.536 104.04C17.92 103.528 18.4427 103.176 19.104 102.984ZM23.44 100.504C23.44 99.8533 23.2267 99.352 22.8 99C22.3733 98.648 21.7867 98.472 21.04 98.472C20.304 98.472 19.7227 98.648 19.296 99C18.8693 99.352 18.656 99.8587 18.656 100.52C18.656 101.117 18.8747 101.597 19.312 101.96C19.76 102.323 20.336 102.504 21.04 102.504C21.7547 102.504 22.3307 102.323 22.768 101.96C23.216 101.587 23.44 101.101 23.44 100.504ZM21.04 103.624C20.2507 103.624 19.6053 103.811 19.104 104.184C18.6027 104.547 18.352 105.096 18.352 105.832C18.352 106.515 18.592 107.064 19.072 107.48C19.5627 107.896 20.2187 108.104 21.04 108.104C21.8613 108.104 22.512 107.896 22.992 107.48C23.472 107.064 23.712 106.515 23.712 105.832C23.712 105.117 23.4667 104.573 22.976 104.2C22.4853 103.816 21.84 103.624 21.04 103.624ZM27.0858 103.096C27.0858 101.261 27.3844 99.832 27.9818 98.808C28.5791 97.7733 29.6244 97.256 31.1178 97.256C32.6004 97.256 33.6404 97.7733 34.2378 98.808C34.8351 99.832 35.1337 101.261 35.1337 103.096C35.1337 104.963 34.8351 106.413 34.2378 107.448C33.6404 108.483 32.6004 109 31.1178 109C29.6244 109 28.5791 108.483 27.9818 107.448C27.3844 106.413 27.0858 104.963 27.0858 103.096ZM33.6938 103.096C33.6938 102.168 33.6298 101.384 33.5018 100.744C33.3844 100.093 33.1338 99.5707 32.7498 99.176C32.3764 98.7813 31.8324 98.584 31.1178 98.584C30.3924 98.584 29.8378 98.7813 29.4538 99.176C29.0804 99.5707 28.8298 100.093 28.7018 100.744C28.5844 101.384 28.5258 102.168 28.5258 103.096C28.5258 104.056 28.5844 104.861 28.7018 105.512C28.8298 106.163 29.0804 106.685 29.4538 107.08C29.8378 107.475 30.3924 107.672 31.1178 107.672C31.8324 107.672 32.3764 107.475 32.7498 107.08C33.1338 106.685 33.3844 106.163 33.5018 105.512C33.6298 104.861 33.6938 104.056 33.6938 103.096ZM36.8126 100.04C36.8126 99.3147 37.0313 98.7387 37.4686 98.312C37.906 97.8747 38.466 97.656 39.1486 97.656C39.8313 97.656 40.3913 97.8747 40.8286 98.312C41.266 98.7387 41.4846 99.3147 41.4846 100.04C41.4846 100.776 41.266 101.363 40.8286 101.8C40.3913 102.227 39.8313 102.44 39.1486 102.44C38.466 102.44 37.906 102.227 37.4686 101.8C37.0313 101.363 36.8126 100.776 36.8126 100.04ZM46.1566 97.832L39.6766 109H38.2366L44.7166 97.832H46.1566ZM39.1486 98.552C38.786 98.552 38.498 98.68 38.2846 98.936C38.082 99.1813 37.9806 99.5493 37.9806 100.04C37.9806 100.531 38.082 100.904 38.2846 101.16C38.498 101.416 38.786 101.544 39.1486 101.544C39.5113 101.544 39.7993 101.416 40.0126 101.16C40.226 100.893 40.3326 100.52 40.3326 100.04C40.3326 99.5493 40.226 99.1813 40.0126 98.936C39.7993 98.68 39.5113 98.552 39.1486 98.552ZM42.9406 106.792C42.9406 106.056 43.1593 105.475 43.5966 105.048C44.034 104.611 44.594 104.392 45.2766 104.392C45.9593 104.392 46.514 104.611 46.9406 105.048C47.378 105.475 47.5966 106.056 47.5966 106.792C47.5966 107.517 47.378 108.099 46.9406 108.536C46.514 108.973 45.9593 109.192 45.2766 109.192C44.594 109.192 44.034 108.979 43.5966 108.552C43.1593 108.115 42.9406 107.528 42.9406 106.792ZM45.2606 105.304C44.898 105.304 44.61 105.432 44.3966 105.688C44.1833 105.933 44.0766 106.301 44.0766 106.792C44.0766 107.272 44.1833 107.64 44.3966 107.896C44.61 108.141 44.898 108.264 45.2606 108.264C45.6233 108.264 45.9113 108.141 46.1246 107.896C46.338 107.64 46.4446 107.272 46.4446 106.792C46.4446 106.301 46.338 105.933 46.1246 105.688C45.9113 105.432 45.6233 105.304 45.2606 105.304Z" fill="#6D6666"/>
<path d="M23.44 159.184C23.2053 158 22.4747 157.408 21.248 157.408C20.2987 157.408 19.5893 157.776 19.12 158.512C18.6507 159.237 18.4213 160.437 18.432 162.112C18.6773 161.557 19.0827 161.125 19.648 160.816C20.224 160.496 20.864 160.336 21.568 160.336C22.6667 160.336 23.5413 160.677 24.192 161.36C24.8533 162.043 25.184 162.987 25.184 164.192C25.184 164.917 25.04 165.568 24.752 166.144C24.4747 166.72 24.048 167.179 23.472 167.52C22.9067 167.861 22.2187 168.032 21.408 168.032C20.3093 168.032 19.4507 167.787 18.832 167.296C18.2133 166.805 17.7813 166.128 17.536 165.264C17.2907 164.4 17.168 163.333 17.168 162.064C17.168 158.149 18.5333 156.192 21.264 156.192C22.3093 156.192 23.1307 156.475 23.728 157.04C24.3253 157.605 24.6773 158.32 24.784 159.184H23.44ZM21.264 161.568C20.8053 161.568 20.3733 161.664 19.968 161.856C19.5627 162.037 19.232 162.32 18.976 162.704C18.7307 163.077 18.608 163.536 18.608 164.08C18.608 164.891 18.8427 165.552 19.312 166.064C19.7813 166.565 20.4533 166.816 21.328 166.816C22.0747 166.816 22.6667 166.587 23.104 166.128C23.552 165.659 23.776 165.029 23.776 164.24C23.776 163.408 23.5627 162.757 23.136 162.288C22.7093 161.808 22.0853 161.568 21.264 161.568ZM27.1483 162.096C27.1483 160.261 27.4469 158.832 28.0443 157.808C28.6416 156.773 29.6869 156.256 31.1803 156.256C32.6629 156.256 33.7029 156.773 34.3003 157.808C34.8976 158.832 35.1962 160.261 35.1962 162.096C35.1962 163.963 34.8976 165.413 34.3003 166.448C33.7029 167.483 32.6629 168 31.1803 168C29.6869 168 28.6416 167.483 28.0443 166.448C27.4469 165.413 27.1483 163.963 27.1483 162.096ZM33.7563 162.096C33.7563 161.168 33.6923 160.384 33.5643 159.744C33.4469 159.093 33.1963 158.571 32.8123 158.176C32.4389 157.781 31.8949 157.584 31.1803 157.584C30.4549 157.584 29.9003 157.781 29.5163 158.176C29.1429 158.571 28.8923 159.093 28.7643 159.744C28.6469 160.384 28.5883 161.168 28.5883 162.096C28.5883 163.056 28.6469 163.861 28.7643 164.512C28.8923 165.163 29.1429 165.685 29.5163 166.08C29.9003 166.475 30.4549 166.672 31.1803 166.672C31.8949 166.672 32.4389 166.475 32.8123 166.08C33.1963 165.685 33.4469 165.163 33.5643 164.512C33.6923 163.861 33.7563 163.056 33.7563 162.096ZM36.8751 159.04C36.8751 158.315 37.0938 157.739 37.5311 157.312C37.9685 156.875 38.5285 156.656 39.2111 156.656C39.8938 156.656 40.4538 156.875 40.8911 157.312C41.3285 157.739 41.5471 158.315 41.5471 159.04C41.5471 159.776 41.3285 160.363 40.8911 160.8C40.4538 161.227 39.8938 161.44 39.2111 161.44C38.5285 161.44 37.9685 161.227 37.5311 160.8C37.0938 160.363 36.8751 159.776 36.8751 159.04ZM46.2191 156.832L39.7391 168H38.2991L44.7791 156.832H46.2191ZM39.2111 157.552C38.8485 157.552 38.5605 157.68 38.3471 157.936C38.1445 158.181 38.0431 158.549 38.0431 159.04C38.0431 159.531 38.1445 159.904 38.3471 160.16C38.5605 160.416 38.8485 160.544 39.2111 160.544C39.5738 160.544 39.8618 160.416 40.0751 160.16C40.2885 159.893 40.3951 159.52 40.3951 159.04C40.3951 158.549 40.2885 158.181 40.0751 157.936C39.8618 157.68 39.5738 157.552 39.2111 157.552ZM43.0031 165.792C43.0031 165.056 43.2218 164.475 43.6591 164.048C44.0965 163.611 44.6565 163.392 45.3391 163.392C46.0218 163.392 46.5765 163.611 47.0031 164.048C47.4405 164.475 47.6591 165.056 47.6591 165.792C47.6591 166.517 47.4405 167.099 47.0031 167.536C46.5765 167.973 46.0218 168.192 45.3391 168.192C44.6565 168.192 44.0965 167.979 43.6591 167.552C43.2218 167.115 43.0031 166.528 43.0031 165.792ZM45.3231 164.304C44.9605 164.304 44.6725 164.432 44.4591 164.688C44.2458 164.933 44.1391 165.301 44.1391 165.792C44.1391 166.272 44.2458 166.64 44.4591 166.896C44.6725 167.141 44.9605 167.264 45.3231 167.264C45.6858 167.264 45.9738 167.141 46.1871 166.896C46.4005 166.64 46.5071 166.272 46.5071 165.792C46.5071 165.301 46.4005 164.933 46.1871 164.688C45.9738 164.432 45.6858 164.304 45.3231 164.304Z" fill="#6D6666"/>
<path d="M16.64 224.424V223.32L22.256 215.544H24V223.16H25.6V224.424H24V227H22.56V224.424H16.64ZM22.624 217.064L18.32 223.16H22.624V217.064ZM27.0545 221.096C27.0545 219.261 27.3532 217.832 27.9505 216.808C28.5478 215.773 29.5932 215.256 31.0865 215.256C32.5692 215.256 33.6092 215.773 34.2065 216.808C34.8038 217.832 35.1025 219.261 35.1025 221.096C35.1025 222.963 34.8038 224.413 34.2065 225.448C33.6092 226.483 32.5692 227 31.0865 227C29.5932 227 28.5478 226.483 27.9505 225.448C27.3532 224.413 27.0545 222.963 27.0545 221.096ZM33.6625 221.096C33.6625 220.168 33.5985 219.384 33.4705 218.744C33.3532 218.093 33.1025 217.571 32.7185 217.176C32.3452 216.781 31.8012 216.584 31.0865 216.584C30.3612 216.584 29.8065 216.781 29.4225 217.176C29.0492 217.571 28.7985 218.093 28.6705 218.744C28.5532 219.384 28.4945 220.168 28.4945 221.096C28.4945 222.056 28.5532 222.861 28.6705 223.512C28.7985 224.163 29.0492 224.685 29.4225 225.08C29.8065 225.475 30.3612 225.672 31.0865 225.672C31.8012 225.672 32.3452 225.475 32.7185 225.08C33.1025 224.685 33.3532 224.163 33.4705 223.512C33.5985 222.861 33.6625 222.056 33.6625 221.096ZM36.7814 218.04C36.7814 217.315 37 216.739 37.4374 216.312C37.8747 215.875 38.4347 215.656 39.1174 215.656C39.8 215.656 40.36 215.875 40.7974 216.312C41.2347 216.739 41.4534 217.315 41.4534 218.04C41.4534 218.776 41.2347 219.363 40.7974 219.8C40.36 220.227 39.8 220.44 39.1174 220.44C38.4347 220.44 37.8747 220.227 37.4374 219.8C37 219.363 36.7814 218.776 36.7814 218.04ZM46.1254 215.832L39.6454 227H38.2054L44.6854 215.832H46.1254ZM39.1174 216.552C38.7547 216.552 38.4667 216.68 38.2534 216.936C38.0507 217.181 37.9494 217.549 37.9494 218.04C37.9494 218.531 38.0507 218.904 38.2534 219.16C38.4667 219.416 38.7547 219.544 39.1174 219.544C39.48 219.544 39.768 219.416 39.9814 219.16C40.1947 218.893 40.3014 218.52 40.3014 218.04C40.3014 217.549 40.1947 217.181 39.9814 216.936C39.768 216.68 39.48 216.552 39.1174 216.552ZM42.9094 224.792C42.9094 224.056 43.128 223.475 43.5654 223.048C44.0027 222.611 44.5627 222.392 45.2454 222.392C45.928 222.392 46.4827 222.611 46.9094 223.048C47.3467 223.475 47.5654 224.056 47.5654 224.792C47.5654 225.517 47.3467 226.099 46.9094 226.536C46.4827 226.973 45.928 227.192 45.2454 227.192C44.5627 227.192 44.0027 226.979 43.5654 226.552C43.128 226.115 42.9094 225.528 42.9094 224.792ZM45.2294 223.304C44.8667 223.304 44.5787 223.432 44.3654 223.688C44.152 223.933 44.0454 224.301 44.0454 224.792C44.0454 225.272 44.152 225.64 44.3654 225.896C44.5787 226.141 44.8667 226.264 45.2294 226.264C45.592 226.264 45.88 226.141 46.0934 225.896C46.3067 225.64 46.4134 225.272 46.4134 224.792C46.4134 224.301 46.3067 223.933 46.0934 223.688C45.88 223.432 45.592 223.304 45.2294 223.304Z" fill="#6D6666"/>
<path d="M16.816 284.832C18.1707 283.744 19.232 282.853 20 282.16C20.768 281.456 21.4133 280.725 21.936 279.968C22.4693 279.2 22.736 278.448 22.736 277.712C22.736 277.019 22.5653 276.475 22.224 276.08C21.8933 275.675 21.3547 275.472 20.608 275.472C19.8827 275.472 19.3173 275.701 18.912 276.16C18.5173 276.608 18.304 277.211 18.272 277.968H16.864C16.9067 276.773 17.2693 275.851 17.952 275.2C18.6347 274.549 19.5147 274.224 20.592 274.224C21.6907 274.224 22.56 274.528 23.2 275.136C23.8507 275.744 24.176 276.581 24.176 277.648C24.176 278.533 23.9093 279.397 23.376 280.24C22.8533 281.072 22.256 281.808 21.584 282.448C20.912 283.077 20.0533 283.813 19.008 284.656H24.512V285.872H16.816V284.832ZM26.1951 280.096C26.1951 278.261 26.4938 276.832 27.0911 275.808C27.6885 274.773 28.7338 274.256 30.2271 274.256C31.7098 274.256 32.7498 274.773 33.3471 275.808C33.9445 276.832 34.2431 278.261 34.2431 280.096C34.2431 281.963 33.9445 283.413 33.3471 284.448C32.7498 285.483 31.7098 286 30.2271 286C28.7338 286 27.6885 285.483 27.0911 284.448C26.4938 283.413 26.1951 281.963 26.1951 280.096ZM32.8031 280.096C32.8031 279.168 32.7391 278.384 32.6111 277.744C32.4938 277.093 32.2431 276.571 31.8591 276.176C31.4858 275.781 30.9418 275.584 30.2271 275.584C29.5018 275.584 28.9471 275.781 28.5631 276.176C28.1898 276.571 27.9391 277.093 27.8111 277.744C27.6938 278.384 27.6351 279.168 27.6351 280.096C27.6351 281.056 27.6938 281.861 27.8111 282.512C27.9391 283.163 28.1898 283.685 28.5631 284.08C28.9471 284.475 29.5018 284.672 30.2271 284.672C30.9418 284.672 31.4858 284.475 31.8591 284.08C32.2431 283.685 32.4938 283.163 32.6111 282.512C32.7391 281.861 32.8031 281.056 32.8031 280.096ZM35.922 277.04C35.922 276.315 36.1407 275.739 36.578 275.312C37.0153 274.875 37.5753 274.656 38.258 274.656C38.9407 274.656 39.5007 274.875 39.938 275.312C40.3753 275.739 40.594 276.315 40.594 277.04C40.594 277.776 40.3753 278.363 39.938 278.8C39.5007 279.227 38.9407 279.44 38.258 279.44C37.5753 279.44 37.0153 279.227 36.578 278.8C36.1407 278.363 35.922 277.776 35.922 277.04ZM45.266 274.832L38.786 286H37.346L43.826 274.832H45.266ZM38.258 275.552C37.8953 275.552 37.6073 275.68 37.394 275.936C37.1913 276.181 37.09 276.549 37.09 277.04C37.09 277.531 37.1913 277.904 37.394 278.16C37.6073 278.416 37.8953 278.544 38.258 278.544C38.6207 278.544 38.9087 278.416 39.122 278.16C39.3353 277.893 39.442 277.52 39.442 277.04C39.442 276.549 39.3353 276.181 39.122 275.936C38.9087 275.68 38.6207 275.552 38.258 275.552ZM42.05 283.792C42.05 283.056 42.2687 282.475 42.706 282.048C43.1433 281.611 43.7033 281.392 44.386 281.392C45.0687 281.392 45.6233 281.611 46.05 282.048C46.4873 282.475 46.706 283.056 46.706 283.792C46.706 284.517 46.4873 285.099 46.05 285.536C45.6233 285.973 45.0687 286.192 44.386 286.192C43.7033 286.192 43.1433 285.979 42.706 285.552C42.2687 285.115 42.05 284.528 42.05 283.792ZM44.37 282.304C44.0073 282.304 43.7193 282.432 43.506 282.688C43.2927 282.933 43.186 283.301 43.186 283.792C43.186 284.272 43.2927 284.64 43.506 284.896C43.7193 285.141 44.0073 285.264 44.37 285.264C44.7327 285.264 45.0207 285.141 45.234 284.896C45.4473 284.64 45.554 284.272 45.554 283.792C45.554 283.301 45.4473 282.933 45.234 282.688C45.0207 282.432 44.7327 282.304 44.37 282.304Z" fill="#6D6666"/>
<path d="M16.992 339.096C16.992 337.261 17.2907 335.832 17.888 334.808C18.4853 333.773 19.5307 333.256 21.024 333.256C22.5067 333.256 23.5467 333.773 24.144 334.808C24.7413 335.832 25.04 337.261 25.04 339.096C25.04 340.963 24.7413 342.413 24.144 343.448C23.5467 344.483 22.5067 345 21.024 345C19.5307 345 18.4853 344.483 17.888 343.448C17.2907 342.413 16.992 340.963 16.992 339.096ZM23.6 339.096C23.6 338.168 23.536 337.384 23.408 336.744C23.2907 336.093 23.04 335.571 22.656 335.176C22.2827 334.781 21.7387 334.584 21.024 334.584C20.2987 334.584 19.744 334.781 19.36 335.176C18.9867 335.571 18.736 336.093 18.608 336.744C18.4907 337.384 18.432 338.168 18.432 339.096C18.432 340.056 18.4907 340.861 18.608 341.512C18.736 342.163 18.9867 342.685 19.36 343.08C19.744 343.475 20.2987 343.672 21.024 343.672C21.7387 343.672 22.2827 343.475 22.656 343.08C23.04 342.685 23.2907 342.163 23.408 341.512C23.536 340.861 23.6 340.056 23.6 339.096ZM26.7189 336.04C26.7189 335.315 26.9375 334.739 27.3749 334.312C27.8122 333.875 28.3722 333.656 29.0549 333.656C29.7375 333.656 30.2975 333.875 30.7349 334.312C31.1722 334.739 31.3909 335.315 31.3909 336.04C31.3909 336.776 31.1722 337.363 30.7349 337.8C30.2975 338.227 29.7375 338.44 29.0549 338.44C28.3722 338.44 27.8122 338.227 27.3749 337.8C26.9375 337.363 26.7189 336.776 26.7189 336.04ZM36.0629 333.832L29.5829 345H28.1429L34.6229 333.832H36.0629ZM29.0549 334.552C28.6922 334.552 28.4042 334.68 28.1909 334.936C27.9882 335.181 27.8869 335.549 27.8869 336.04C27.8869 336.531 27.9882 336.904 28.1909 337.16C28.4042 337.416 28.6922 337.544 29.0549 337.544C29.4175 337.544 29.7055 337.416 29.9189 337.16C30.1322 336.893 30.2389 336.52 30.2389 336.04C30.2389 335.549 30.1322 335.181 29.9189 334.936C29.7055 334.68 29.4175 334.552 29.0549 334.552ZM32.8469 342.792C32.8469 342.056 33.0655 341.475 33.5029 341.048C33.9402 340.611 34.5002 340.392 35.1829 340.392C35.8655 340.392 36.4202 340.611 36.8469 341.048C37.2842 341.475 37.5029 342.056 37.5029 342.792C37.5029 343.517 37.2842 344.099 36.8469 344.536C36.4202 344.973 35.8655 345.192 35.1829 345.192C34.5002 345.192 33.9402 344.979 33.5029 344.552C33.0655 344.115 32.8469 343.528 32.8469 342.792ZM35.1669 341.304C34.8042 341.304 34.5162 341.432 34.3029 341.688C34.0895 341.933 33.9829 342.301 33.9829 342.792C33.9829 343.272 34.0895 343.64 34.3029 343.896C34.5162 344.141 34.8042 344.264 35.1669 344.264C35.5295 344.264 35.8175 344.141 36.0309 343.896C36.2442 343.64 36.3509 343.272 36.3509 342.792C36.3509 342.301 36.2442 341.933 36.0309 341.688C35.8175 341.432 35.5295 341.304 35.1669 341.304Z" fill="#6D6666"/>
<line y1="-0.25" x2="497" y2="-0.25" transform="matrix(1 6.85415e-05 -5.98195e-05 1 62 110)" stroke="#6D6666" stroke-width="0.5"/>
<line y1="-0.25" x2="497" y2="-0.25" transform="matrix(1 6.85415e-05 -5.98195e-05 1 62 169.034)" stroke="#6D6666" stroke-width="0.5"/>
<line y1="-0.25" x2="497" y2="-0.25" transform="matrix(1 6.85415e-05 -5.98195e-05 1 62 228.068)" stroke="#6D6666" stroke-width="0.5"/>
<line y1="-0.25" x2="497" y2="-0.25" transform="matrix(1 6.85415e-05 -5.98195e-05 1 62 287.103)" stroke="#6D6666" stroke-width="0.5"/>
<line y1="-0.25" x2="497" y2="-0.25" transform="matrix(1 6.85415e-05 -5.98195e-05 1 62 346.136)" stroke="#6D6666" stroke-width="0.5"/>
<path d="M62 234.301L95.5475 234.301L131.891 141.479L218.113 168.904L254.277 122.493L319.508 214.26L404.93 130.932L473.268 267L559 113" stroke="#0275FF" stroke-width="4.20946"/>
<path d="M62 309.192L97.0442 234.301L131.415 259.616L148.937 211.096L165.111 232.192L218.351 245.904L268.949 201.928L317.082 220.589L404.018 211.096L472.085 344L557 193.164L557 113L472.085 263.975L404.018 128.822L319.103 211.096L253.069 119.758L216.668 166.153L130.741 139.37L93.0007 232.192L62 232.192L62 309.192Z" fill="#0288D1" fill-opacity="0.22"/>
<path d="M62 311.301L98.4152 232.192L132.807 258.562L150.003 208.986L167.199 232.192L218.45 243.795L269.701 199.493L321.29 221.644L404.93 207.932L473.268 344L559 190" stroke="#FF9800" stroke-width="4.20946"/>
<path d="M64.136 356.636V362.816C64.136 363.504 63.924 364.056 63.5 364.472C63.076 364.88 62.516 365.084 61.82 365.084C61.116 365.084 60.552 364.876 60.128 364.46C59.704 364.036 59.492 363.46 59.492 362.732H60.584C60.592 363.14 60.696 363.472 60.896 363.728C61.104 363.984 61.412 364.112 61.82 364.112C62.228 364.112 62.532 363.992 62.732 363.752C62.932 363.504 63.032 363.192 63.032 362.816V356.636H64.136ZM65.8793 361.688C65.8793 361.016 66.0153 360.428 66.2873 359.924C66.5593 359.412 66.9313 359.016 67.4033 358.736C67.8833 358.456 68.4153 358.316 68.9993 358.316C69.5753 358.316 70.0753 358.44 70.4993 358.688C70.9233 358.936 71.2393 359.248 71.4473 359.624V358.424H72.5513V365H71.4473V363.776C71.2313 364.16 70.9073 364.48 70.4753 364.736C70.0513 364.984 69.5553 365.108 68.9873 365.108C68.4033 365.108 67.8753 364.964 67.4033 364.676C66.9313 364.388 66.5593 363.984 66.2873 363.464C66.0153 362.944 65.8793 362.352 65.8793 361.688ZM71.4473 361.7C71.4473 361.204 71.3473 360.772 71.1473 360.404C70.9473 360.036 70.6753 359.756 70.3313 359.564C69.9953 359.364 69.6233 359.264 69.2153 359.264C68.8073 359.264 68.4353 359.36 68.0993 359.552C67.7633 359.744 67.4953 360.024 67.2953 360.392C67.0953 360.76 66.9953 361.192 66.9953 361.688C66.9953 362.192 67.0953 362.632 67.2953 363.008C67.4953 363.376 67.7633 363.66 68.0993 363.86C68.4353 364.052 68.8073 364.148 69.2153 364.148C69.6233 364.148 69.9953 364.052 70.3313 363.86C70.6753 363.66 70.9473 363.376 71.1473 363.008C71.3473 362.632 71.4473 362.196 71.4473 361.7ZM77.6007 358.304C78.4007 358.304 79.0487 358.548 79.5447 359.036C80.0407 359.516 80.2887 360.212 80.2887 361.124V365H79.2087V361.28C79.2087 360.624 79.0447 360.124 78.7167 359.78C78.3887 359.428 77.9407 359.252 77.3727 359.252C76.7967 359.252 76.3367 359.432 75.9927 359.792C75.6567 360.152 75.4887 360.676 75.4887 361.364V365H74.3967V358.424H75.4887V359.36C75.7047 359.024 75.9967 358.764 76.3647 358.58C76.7407 358.396 77.1527 358.304 77.6007 358.304Z" fill="#6D6666"/>
<path d="M173.652 356.636V357.524H170.016V360.344H172.968V361.232H170.016V365H168.924V356.636H173.652ZM180.971 361.46C180.971 361.668 180.959 361.888 180.935 362.12H175.679C175.719 362.768 175.939 363.276 176.339 363.644C176.747 364.004 177.239 364.184 177.815 364.184C178.287 364.184 178.679 364.076 178.991 363.86C179.311 363.636 179.535 363.34 179.663 362.972H180.839C180.663 363.604 180.311 364.12 179.783 364.52C179.255 364.912 178.599 365.108 177.815 365.108C177.191 365.108 176.631 364.968 176.135 364.688C175.647 364.408 175.263 364.012 174.983 363.5C174.703 362.98 174.563 362.38 174.563 361.7C174.563 361.02 174.699 360.424 174.971 359.912C175.243 359.4 175.623 359.008 176.111 358.736C176.607 358.456 177.175 358.316 177.815 358.316C178.439 358.316 178.991 358.452 179.471 358.724C179.951 358.996 180.319 359.372 180.575 359.852C180.839 360.324 180.971 360.86 180.971 361.46ZM179.843 361.232C179.843 360.816 179.751 360.46 179.567 360.164C179.383 359.86 179.131 359.632 178.811 359.48C178.499 359.32 178.151 359.24 177.767 359.24C177.215 359.24 176.743 359.416 176.351 359.768C175.967 360.12 175.747 360.608 175.691 361.232H179.843ZM183.504 359.648C183.728 359.256 184.056 358.936 184.488 358.688C184.92 358.44 185.412 358.316 185.964 358.316C186.556 358.316 187.088 358.456 187.56 358.736C188.032 359.016 188.404 359.412 188.676 359.924C188.948 360.428 189.084 361.016 189.084 361.688C189.084 362.352 188.948 362.944 188.676 363.464C188.404 363.984 188.028 364.388 187.548 364.676C187.076 364.964 186.548 365.108 185.964 365.108C185.396 365.108 184.896 364.984 184.464 364.736C184.04 364.488 183.72 364.172 183.504 363.788V365H182.412V356.12H183.504V359.648ZM187.968 361.688C187.968 361.192 187.868 360.76 187.668 360.392C187.468 360.024 187.196 359.744 186.852 359.552C186.516 359.36 186.144 359.264 185.736 359.264C185.336 359.264 184.964 359.364 184.62 359.564C184.284 359.756 184.012 360.04 183.804 360.416C183.604 360.784 183.504 361.212 183.504 361.7C183.504 362.196 183.604 362.632 183.804 363.008C184.012 363.376 184.284 363.66 184.62 363.86C184.964 364.052 185.336 364.148 185.736 364.148C186.144 364.148 186.516 364.052 186.852 363.86C187.196 363.66 187.468 363.376 187.668 363.008C187.868 362.632 187.968 362.192 187.968 361.688Z" fill="#6D6666"/>
<path d="M285.408 356.696V365H284.316V358.808L281.556 365H280.788L278.016 358.796V365H276.924V356.696H278.1L281.172 363.56L284.244 356.696H285.408ZM286.852 361.688C286.852 361.016 286.988 360.428 287.26 359.924C287.532 359.412 287.904 359.016 288.376 358.736C288.856 358.456 289.388 358.316 289.972 358.316C290.548 358.316 291.048 358.44 291.472 358.688C291.896 358.936 292.212 359.248 292.42 359.624V358.424H293.524V365H292.42V363.776C292.204 364.16 291.88 364.48 291.448 364.736C291.024 364.984 290.528 365.108 289.96 365.108C289.376 365.108 288.848 364.964 288.376 364.676C287.904 364.388 287.532 363.984 287.26 363.464C286.988 362.944 286.852 362.352 286.852 361.688ZM292.42 361.7C292.42 361.204 292.32 360.772 292.12 360.404C291.92 360.036 291.648 359.756 291.304 359.564C290.968 359.364 290.596 359.264 290.188 359.264C289.78 359.264 289.408 359.36 289.072 359.552C288.736 359.744 288.468 360.024 288.268 360.392C288.068 360.76 287.968 361.192 287.968 361.688C287.968 362.192 288.068 362.632 288.268 363.008C288.468 363.376 288.736 363.66 289.072 363.86C289.408 364.052 289.78 364.148 290.188 364.148C290.596 364.148 290.968 364.052 291.304 363.86C291.648 363.66 291.92 363.376 292.12 363.008C292.32 362.632 292.42 362.196 292.42 361.7ZM296.461 359.492C296.653 359.116 296.925 358.824 297.277 358.616C297.637 358.408 298.073 358.304 298.585 358.304V359.432H298.297C297.073 359.432 296.461 360.096 296.461 361.424V365H295.369V358.424H296.461V359.492ZM299.438 361.7C299.438 361.02 299.574 360.428 299.846 359.924C300.118 359.412 300.494 359.016 300.974 358.736C301.462 358.456 302.018 358.316 302.642 358.316C303.45 358.316 304.114 358.512 304.634 358.904C305.162 359.296 305.51 359.84 305.678 360.536H304.502C304.39 360.136 304.17 359.82 303.842 359.588C303.522 359.356 303.122 359.24 302.642 359.24C302.018 359.24 301.514 359.456 301.13 359.888C300.746 360.312 300.554 360.916 300.554 361.7C300.554 362.492 300.746 363.104 301.13 363.536C301.514 363.968 302.018 364.184 302.642 364.184C303.122 364.184 303.522 364.072 303.842 363.848C304.162 363.624 304.382 363.304 304.502 362.888H305.678C305.502 363.56 305.15 364.1 304.622 364.508C304.094 364.908 303.434 365.108 302.642 365.108C302.018 365.108 301.462 364.968 300.974 364.688C300.494 364.408 300.118 364.012 299.846 363.5C299.574 362.988 299.438 362.388 299.438 361.7ZM310.399 358.304C310.895 358.304 311.343 358.412 311.743 358.628C312.143 358.836 312.455 359.152 312.679 359.576C312.911 360 313.027 360.516 313.027 361.124V365H311.947V361.28C311.947 360.624 311.783 360.124 311.455 359.78C311.127 359.428 310.679 359.252 310.111 359.252C309.535 359.252 309.075 359.432 308.731 359.792C308.395 360.152 308.227 360.676 308.227 361.364V365H307.135V356.12H308.227V359.36C308.443 359.024 308.739 358.764 309.115 358.58C309.499 358.396 309.927 358.304 310.399 358.304Z" fill="#6D6666"/>
<path d="M405.868 363.14H402.22L401.548 365H400.396L403.42 356.684H404.68L407.692 365H406.54L405.868 363.14ZM405.556 362.252L404.044 358.028L402.532 362.252H405.556ZM410.102 359.636C410.318 359.26 410.638 358.948 411.062 358.7C411.494 358.444 411.994 358.316 412.562 358.316C413.146 358.316 413.674 358.456 414.146 358.736C414.626 359.016 415.002 359.412 415.274 359.924C415.546 360.428 415.682 361.016 415.682 361.688C415.682 362.352 415.546 362.944 415.274 363.464C415.002 363.984 414.626 364.388 414.146 364.676C413.674 364.964 413.146 365.108 412.562 365.108C412.002 365.108 411.506 364.984 411.074 364.736C410.65 364.48 410.326 364.164 410.102 363.788V368.12H409.01V358.424H410.102V359.636ZM414.566 361.688C414.566 361.192 414.466 360.76 414.266 360.392C414.066 360.024 413.794 359.744 413.45 359.552C413.114 359.36 412.742 359.264 412.334 359.264C411.934 359.264 411.562 359.364 411.218 359.564C410.882 359.756 410.61 360.04 410.402 360.416C410.202 360.784 410.102 361.212 410.102 361.7C410.102 362.196 410.202 362.632 410.402 363.008C410.61 363.376 410.882 363.66 411.218 363.86C411.562 364.052 411.934 364.148 412.334 364.148C412.742 364.148 413.114 364.052 413.45 363.86C413.794 363.66 414.066 363.376 414.266 363.008C414.466 362.632 414.566 362.192 414.566 361.688ZM418.211 359.492C418.403 359.116 418.675 358.824 419.027 358.616C419.387 358.408 419.823 358.304 420.335 358.304V359.432H420.047C418.823 359.432 418.211 360.096 418.211 361.424V365H417.119V358.424H418.211V359.492ZM422.16 357.356C421.952 357.356 421.776 357.284 421.632 357.14C421.488 356.996 421.416 356.82 421.416 356.612C421.416 356.404 421.488 356.228 421.632 356.084C421.776 355.94 421.952 355.868 422.16 355.868C422.36 355.868 422.528 355.94 422.664 356.084C422.808 356.228 422.88 356.404 422.88 356.612C422.88 356.82 422.808 356.996 422.664 357.14C422.528 357.284 422.36 357.356 422.16 357.356ZM422.688 358.424V365H421.596V358.424H422.688ZM425.641 356.12V365H424.549V356.12H425.641Z" fill="#6D6666"/>
<path d="M522.804 356.696V365H521.712V358.808L518.952 365H518.184L515.412 358.796V365H514.32V356.696H515.496L518.568 363.56L521.64 356.696H522.804ZM524.248 361.688C524.248 361.016 524.384 360.428 524.656 359.924C524.928 359.412 525.3 359.016 525.772 358.736C526.252 358.456 526.784 358.316 527.368 358.316C527.944 358.316 528.444 358.44 528.868 358.688C529.292 358.936 529.608 359.248 529.816 359.624V358.424H530.92V365H529.816V363.776C529.6 364.16 529.276 364.48 528.844 364.736C528.42 364.984 527.924 365.108 527.356 365.108C526.772 365.108 526.244 364.964 525.772 364.676C525.3 364.388 524.928 363.984 524.656 363.464C524.384 362.944 524.248 362.352 524.248 361.688ZM529.816 361.7C529.816 361.204 529.716 360.772 529.516 360.404C529.316 360.036 529.044 359.756 528.7 359.564C528.364 359.364 527.992 359.264 527.584 359.264C527.176 359.264 526.804 359.36 526.468 359.552C526.132 359.744 525.864 360.024 525.664 360.392C525.464 360.76 525.364 361.192 525.364 361.688C525.364 362.192 525.464 362.632 525.664 363.008C525.864 363.376 526.132 363.66 526.468 363.86C526.804 364.052 527.176 364.148 527.584 364.148C527.992 364.148 528.364 364.052 528.7 363.86C529.044 363.66 529.316 363.376 529.516 363.008C529.716 362.632 529.816 362.196 529.816 361.7ZM538.43 358.424L534.47 368.096H533.342L534.638 364.928L531.986 358.424H533.198L535.262 363.752L537.302 358.424H538.43Z" fill="#6D6666"/>
</svg>
