<svg width="118" height="36" viewBox="0 0 118 36" fill="none" xmlns="http://www.w3.org/2000/svg">
<path d="M17.1487 0.103516C15.574 0.103516 14.2868 1.37827 14.2868 2.96546V6.18983C14.2868 7.76453 15.5615 9.05177 17.1487 9.05177C18.7234 9.05177 20.0107 7.77702 20.0107 6.18983V2.96546C20.0107 1.37827 18.7359 0.103516 17.1487 0.103516Z" fill="#414141"/>
<path d="M6.63917 3.52819C5.36442 4.45301 5.07697 6.24016 6.00179 7.51491L7.90142 10.1269C8.82624 11.4017 10.6134 11.6891 11.8881 10.7643C13.1629 9.83946 13.4503 8.05231 12.5255 6.77756L10.6259 4.16556C9.70107 2.89081 7.91392 2.60337 6.63917 3.52819Z" fill="#414141"/>
<path d="M0.140164 12.476C-0.347241 13.9757 0.477598 15.5879 1.97731 16.0753L5.05171 17.0751C6.55142 17.5625 8.1636 16.7377 8.65101 15.238C9.13841 13.7383 8.31357 12.1261 6.81386 11.6387L3.73946 10.6389C2.23975 10.1639 0.627569 10.9763 0.140164 12.476Z" fill="#414141"/>
<path d="M0.153471 23.5366C0.640877 25.0363 2.25306 25.8612 3.75277 25.3738L6.82717 24.374C8.32688 23.8866 9.15172 22.2744 8.66432 20.7747C8.17691 19.275 6.56472 18.4501 5.06502 18.9375L1.99061 19.9373C0.490905 20.4247 -0.333934 22.0369 0.153471 23.5366Z" fill="#414141"/>
<path d="M6.66356 32.4846C7.93831 33.4095 9.72546 33.1345 10.6503 31.8473L12.5499 29.2353C13.4747 27.9605 13.1998 26.1734 11.9125 25.2485C10.6378 24.3237 8.85064 24.5987 7.92582 25.8859L6.02618 28.4979C5.10136 29.7727 5.37631 31.5598 6.66356 32.4846Z" fill="#414141"/>
<path d="M17.1742 35.8965C18.7489 35.8965 20.0361 34.6217 20.0361 33.0346V29.8102C20.0361 28.2355 18.7614 26.9482 17.1742 26.9482C15.5995 26.9482 14.3122 28.223 14.3122 29.8102V33.0346C14.3247 34.6093 15.5995 35.8965 17.1742 35.8965Z" fill="#414141"/>
<path d="M27.6966 32.4713C28.9713 31.5465 29.2588 29.7593 28.334 28.4846L26.4343 25.8726C25.5095 24.5978 23.7224 24.3104 22.4476 25.2352C21.1729 26.16 20.8854 27.9472 21.8102 29.2219L23.7099 31.8339C24.6347 33.1087 26.4218 33.3961 27.6966 32.4713Z" fill="#414141"/>
<path d="M34.1836 23.5112C34.671 22.0115 33.8461 20.3993 32.3464 19.9119L29.272 18.9121C27.7723 18.4247 26.1601 19.2496 25.6727 20.7493C25.1853 22.249 26.0102 23.8612 27.5099 24.3486L30.5843 25.3484C32.0965 25.8358 33.6962 25.011 34.1836 23.5112Z" fill="#414141"/>
<path d="M34.1836 12.4514C33.6962 10.9517 32.084 10.1269 30.5843 10.6143L27.5099 11.6141C26.0102 12.1015 25.1853 13.7137 25.6727 15.2134C26.1601 16.7131 27.7723 17.5379 29.272 17.0505L32.3464 16.0507C33.8461 15.5633 34.671 13.9511 34.1836 12.4514Z" fill="#414141"/>
<path d="M27.673 3.51564C26.3982 2.59082 24.6111 2.86576 23.6862 4.15301L21.7866 6.75251C20.8618 8.02726 21.1367 9.81441 22.424 10.7392C23.6987 11.6641 25.4859 11.3891 26.4107 10.1019L28.3103 7.48986C29.2352 6.22761 28.9477 4.44046 27.673 3.51564Z" fill="#414141"/>
<path d="M57.5679 12.542V15.5001H53.7763V24.0967H50.0827V15.5001H46.3237V12.542H57.5679Z" fill="#414141"/>
<path d="M69.6782 12.542V15.5001H65.8865V24.0967H62.1929V15.5001H58.434V12.542H69.6782Z" fill="#414141"/>
<path d="M76.3363 23.607C75.3884 23.1003 74.6203 22.3812 74.0646 21.4823C73.5089 20.5834 73.3945 19.3904 73.3945 18.2627C73.3945 17.135 73.5089 15.942 74.0646 15.0431C74.6203 14.1442 75.3884 13.4414 76.3363 12.9348C77.2843 12.4281 78.51 12.3301 79.6377 12.3301C80.7817 12.3301 81.9911 12.4118 82.939 12.9348C83.8869 13.4414 84.6387 14.1442 85.1944 15.0431C85.7501 15.942 85.8645 17.135 85.8645 18.2627C85.8645 19.3904 85.7501 20.5834 85.1944 21.4823C84.6387 22.3812 83.8869 23.1003 82.939 23.607C81.9911 24.1136 80.7817 24.2117 79.654 24.2117C78.4937 24.2117 77.2843 24.1136 76.3363 23.607ZM81.3864 20.6161C81.795 20.1585 82.0075 19.0308 82.0075 18.2464C82.0075 17.4455 81.795 16.3342 81.3864 15.8766C80.9778 15.419 80.3895 15.1902 79.6377 15.1902C78.8696 15.1902 78.2812 15.419 77.8726 15.8766C77.464 16.3342 77.2516 17.4619 77.2516 18.2464C77.2516 19.0308 77.464 20.1422 77.8726 20.6161C78.2812 21.0737 78.8696 21.3026 79.6377 21.3026C80.3895 21.3189 80.9778 21.0901 81.3864 20.6161Z" fill="#414141"/>
<path d="M92.2551 13.9476C92.1244 13.9476 91.9936 13.964 91.8792 13.9967C91.3072 14.1438 91.2582 14.6504 91.3072 15.1571H92.8271V17.5922H91.3399V24.0968H87.8261V17.5922H86.8782V15.1571H87.9895C88.0059 13.9967 88.1693 13.0161 88.8721 12.3787C89.0845 12.1826 89.346 12.0355 89.6075 11.9374C89.8853 11.8394 90.1795 11.7903 90.4737 11.7576C90.7679 11.725 91.0784 11.7413 91.3726 11.7576C91.7485 11.7903 92.1244 11.8394 92.5003 11.9047C92.631 11.9374 92.7618 11.9538 92.8925 11.9865C92.9252 11.9865 92.9579 12.0028 92.9906 12.0028V13.9313C92.7454 13.9313 92.5003 13.9313 92.2551 13.9476Z" fill="#414141"/>
<path d="M98.7107 13.9476C98.58 13.9476 98.4492 13.964 98.3348 13.9967C97.7628 14.1438 97.7138 14.6504 97.7628 15.1571H99.2827V17.5922H97.7955V24.0968H94.2817V17.5922H93.3338V15.1571H94.4451C94.4615 13.9967 94.6249 13.0161 95.3277 12.3787C95.5401 12.1826 95.8016 12.0355 96.0631 11.9374C96.341 11.8394 96.6351 11.7903 96.9293 11.7576C97.2235 11.725 97.534 11.7413 97.8282 11.7576C98.2041 11.7903 98.58 11.8394 98.9559 11.9047C99.0866 11.9374 99.2174 11.9538 99.3481 11.9865C99.3808 11.9865 99.4135 12.0028 99.4462 12.0028V13.9313C99.201 13.9313 98.9559 13.9313 98.7107 13.9476Z" fill="#414141"/>
<path d="M110.135 20.257H103.597C103.516 20.7963 103.679 21.352 104.088 21.7116C104.496 22.0711 105.068 22.1692 105.591 22.0711C106.49 21.9567 106.882 21.4991 106.866 20.731H110.069C110.053 21.1559 110.053 21.6952 109.89 22.0875C109.53 22.9536 108.729 23.4603 107.912 23.8198C107.226 24.114 106 24.2611 105.183 24.2611C104.202 24.2611 103.336 24.0813 102.584 23.7054C101.816 23.3295 101.228 22.7902 100.803 22.0875C100.116 20.9434 100.002 19.4398 100.361 18.1651C100.46 17.8055 100.607 17.4623 100.803 17.1518C101.424 16.1221 102.47 15.4357 103.63 15.1579C104.594 14.9127 105.608 14.9127 106.572 15.1252C107.814 15.403 108.942 16.0568 109.612 17.1681C109.808 17.5113 109.971 17.8709 110.069 18.2631C110.167 18.6717 110.216 19.113 110.216 19.5379C110.184 19.7994 110.167 20.0445 110.135 20.257ZM106.752 18.7044C106.801 18.7044 106.752 18.3775 106.752 18.3448C106.686 17.9363 106.408 17.5767 106.065 17.3642C105.787 17.2008 105.477 17.1354 105.166 17.1354C104.006 17.1845 103.581 18.067 103.499 18.7044H106.752Z" fill="#414141"/>
<path d="M115.839 15.3209C116.313 15.0594 116.852 14.945 117.44 15.0431C117.555 15.0594 117.898 15.0921 117.98 15.2065C118.012 15.2556 117.996 15.3863 117.996 15.4517C117.996 15.6805 117.996 15.9093 117.996 16.1381C117.996 16.2688 117.996 17.9849 117.996 17.9849C117.277 17.9849 116.345 17.8215 115.724 18.2791C115.365 18.5406 115.185 18.9655 115.103 19.4068C114.956 20.1422 115.021 20.9267 115.021 21.6785C115.021 22.2995 115.021 22.9206 115.021 23.5416C115.021 23.5743 115.021 24.0483 115.021 24.0483H111.769V15.2719H114.433L114.646 16.563C114.629 16.4813 114.891 16.2035 114.94 16.1381C115.201 15.7949 115.495 15.5171 115.839 15.3209Z" fill="#414141"/>
</svg>
