<svg width="54" height="66" viewBox="0 0 54 66" fill="none" xmlns="http://www.w3.org/2000/svg">
<path d="M26.9869 6.9209C25.4122 6.9209 24.1249 8.19565 24.1249 9.78284V13.0072C24.1249 14.5819 25.3997 15.8692 26.9869 15.8692C28.5615 15.8692 29.8488 14.5944 29.8488 13.0072V9.78284C29.8488 8.19565 28.574 6.9209 26.9869 6.9209Z" fill="#414141"/>
<path d="M16.4773 10.3456C15.2026 11.2704 14.9151 13.0575 15.8399 14.3323L17.7396 16.9443C18.6644 18.219 20.4515 18.5065 21.7263 17.5817C23.001 16.6568 23.2885 14.8697 22.3637 13.5949L20.464 10.9829C19.5392 9.7082 17.7521 9.42075 16.4773 10.3456Z" fill="#414141"/>
<path d="M9.9783 19.2934C9.49089 20.7931 10.3157 22.4053 11.8154 22.8927L14.8898 23.8925C16.3896 24.3799 18.0017 23.5551 18.4891 22.0553C18.9765 20.5556 18.1517 18.9434 16.652 18.456L13.5776 17.4562C12.0779 16.9813 10.4657 17.7937 9.9783 19.2934Z" fill="#414141"/>
<path d="M9.9916 30.354C10.479 31.8537 12.0912 32.6786 13.5909 32.1912L16.6653 31.1914C18.165 30.7039 18.9899 29.0918 18.5024 27.5921C18.015 26.0923 16.4029 25.2675 14.9031 25.7549L11.8287 26.7547C10.329 27.2421 9.5042 28.8543 9.9916 30.354Z" fill="#414141"/>
<path d="M16.5017 39.302C17.7765 40.2268 19.5636 39.9519 20.4884 38.6646L22.3881 36.0527C23.3129 34.7779 23.0379 32.9907 21.7507 32.0659C20.4759 31.1411 18.6888 31.4161 17.764 32.7033L15.8643 35.3153C14.9395 36.59 15.2145 38.3772 16.5017 39.302Z" fill="#414141"/>
<path d="M27.0123 42.7139C28.587 42.7139 29.8743 41.4391 29.8743 39.8519V36.6276C29.8743 35.0529 28.5995 33.7656 27.0123 33.7656C25.4376 33.7656 24.1504 35.0404 24.1504 36.6276V39.8519C24.1629 41.4266 25.4376 42.7139 27.0123 42.7139Z" fill="#414141"/>
<path d="M37.5347 39.2887C38.8095 38.3639 39.0969 36.5767 38.1721 35.302L36.2725 32.69C35.3476 31.4152 33.5605 31.1278 32.2857 32.0526C31.011 32.9774 30.7235 34.7646 31.6484 36.0393L33.548 38.6513C34.4728 39.9261 36.26 40.2135 37.5347 39.2887Z" fill="#414141"/>
<path d="M44.0217 30.3286C44.5091 28.8289 43.6843 27.2167 42.1846 26.7293L39.1102 25.7295C37.6105 25.2421 35.9983 26.067 35.5109 27.5667C35.0235 29.0664 35.8483 30.6786 37.348 31.166L40.4224 32.1658C41.9346 32.6532 43.5343 31.8283 44.0217 30.3286Z" fill="#414141"/>
<path d="M44.0217 19.2688C43.5343 17.7691 41.9221 16.9443 40.4224 17.4317L37.348 18.4315C35.8483 18.9189 35.0235 20.5311 35.5109 22.0308C35.9983 23.5305 37.6105 24.3553 39.1102 23.8679L42.1846 22.8681C43.6843 22.3807 44.5091 20.7685 44.0217 19.2688Z" fill="#414141"/>
<path d="M37.5111 10.333C36.2363 9.4082 34.4492 9.68315 33.5244 10.9704L31.6247 13.5699C30.6999 14.8446 30.9749 16.6318 32.2621 17.5566C33.5369 18.4814 35.324 18.2065 36.2488 16.9192L38.1485 14.3072C39.0733 13.045 38.7858 11.2578 37.5111 10.333Z" fill="#414141"/>
<path d="M8.60758 50.3149V52.5272H5.77202V58.9561H3.00979V52.5272H0.198669V50.3149H8.60758Z" fill="#414141"/>
<path d="M17.6643 50.3149V52.5272H14.8287V58.9561H12.0665V52.5272H9.25534V50.3149H17.6643Z" fill="#414141"/>
<path d="M22.6434 58.5901C21.9345 58.2112 21.3601 57.6734 20.9445 57.0012C20.529 56.329 20.4434 55.4368 20.4434 54.5934C20.4434 53.7501 20.529 52.8579 20.9445 52.1856C21.3601 51.5134 21.9345 50.9879 22.6434 50.609C23.3523 50.2301 24.269 50.1567 25.1123 50.1567C25.9679 50.1567 26.8723 50.2179 27.5812 50.609C28.2901 50.9879 28.8523 51.5134 29.2679 52.1856C29.6834 52.8579 29.769 53.7501 29.769 54.5934C29.769 55.4368 29.6834 56.329 29.2679 57.0012C28.8523 57.6734 28.2901 58.2112 27.5812 58.5901C26.8723 58.969 25.9679 59.0423 25.1245 59.0423C24.2568 59.0423 23.3523 58.969 22.6434 58.5901ZM26.4201 56.3534C26.7257 56.0112 26.8846 55.1679 26.8846 54.5812C26.8846 53.9823 26.7257 53.1512 26.4201 52.809C26.1145 52.4667 25.6745 52.2956 25.1123 52.2956C24.5379 52.2956 24.0979 52.4667 23.7923 52.809C23.4868 53.1512 23.3279 53.9945 23.3279 54.5812C23.3279 55.1679 23.4868 55.999 23.7923 56.3534C24.0979 56.6956 24.5379 56.8668 25.1123 56.8668C25.6745 56.879 26.1145 56.7079 26.4201 56.3534Z" fill="#414141"/>
<path d="M34.5482 51.3663C34.4504 51.3663 34.3527 51.3785 34.2671 51.4029C33.8393 51.5129 33.8027 51.8918 33.8393 52.2707H34.976V54.0918H33.8638V58.9563H31.236V54.0918H30.5271V52.2707H31.3582C31.3704 51.4029 31.4927 50.6696 32.0182 50.1929C32.1771 50.0462 32.3727 49.9362 32.5682 49.8629C32.776 49.7896 32.996 49.7529 33.216 49.7285C33.436 49.704 33.6682 49.7162 33.8882 49.7285C34.1693 49.7529 34.4504 49.7896 34.7316 49.8385C34.8293 49.8629 34.9271 49.8751 35.0249 49.8996C35.0493 49.8996 35.0738 49.9118 35.0982 49.9118V51.354C34.9149 51.354 34.7316 51.354 34.5482 51.3663Z" fill="#414141"/>
<path d="M39.376 51.3663C39.2782 51.3663 39.1804 51.3785 39.0949 51.4029C38.6671 51.5129 38.6304 51.8918 38.6671 52.2707H39.8038V54.0918H38.6915V58.9563H36.0638V54.0918H35.3549V52.2707H36.186C36.1982 51.4029 36.3204 50.6696 36.846 50.1929C37.0049 50.0462 37.2004 49.9362 37.396 49.8629C37.6038 49.7896 37.8238 49.7529 38.0438 49.7285C38.2638 49.704 38.496 49.7162 38.716 49.7285C38.9971 49.7529 39.2782 49.7896 39.5593 49.8385C39.6571 49.8629 39.7549 49.8751 39.8527 49.8996C39.8771 49.8996 39.9016 49.9118 39.926 49.9118V51.354C39.7427 51.354 39.5593 51.354 39.376 51.3663Z" fill="#414141"/>
<path d="M47.9194 56.0844H43.0305C42.9693 56.4878 43.0916 56.9033 43.3971 57.1722C43.7027 57.4411 44.1305 57.5144 44.5216 57.4411C45.1938 57.3555 45.4871 57.0133 45.4749 56.4389H47.8705C47.8582 56.7567 47.8582 57.16 47.736 57.4533C47.4671 58.1011 46.8682 58.48 46.2571 58.7489C45.7438 58.9689 44.8271 59.0789 44.216 59.0789C43.4827 59.0789 42.8349 58.9444 42.2727 58.6633C41.6982 58.3822 41.2582 57.9789 40.9404 57.4533C40.4271 56.5978 40.3416 55.4733 40.6104 54.52C40.6838 54.2511 40.7938 53.9944 40.9404 53.7622C41.4049 52.9922 42.1871 52.4789 43.0549 52.2711C43.776 52.0878 44.5338 52.0878 45.2549 52.2466C46.1838 52.4544 47.0271 52.9433 47.5282 53.7744C47.6749 54.0311 47.7971 54.3 47.8705 54.5933C47.9438 54.8989 47.9805 55.2289 47.9805 55.5467C47.956 55.7422 47.9438 55.9255 47.9194 56.0844ZM45.3894 54.9233C45.426 54.9233 45.3894 54.6789 45.3894 54.6544C45.3405 54.3489 45.1327 54.08 44.876 53.9211C44.6682 53.7989 44.436 53.75 44.2038 53.75C43.336 53.7867 43.0182 54.4467 42.9571 54.9233H45.3894Z" fill="#414141"/>
<path d="M52.185 52.3935C52.5394 52.1979 52.9427 52.1124 53.3827 52.1857C53.4683 52.1979 53.725 52.2224 53.7861 52.3079C53.8105 52.3446 53.7983 52.4424 53.7983 52.4912C53.7983 52.6624 53.7983 52.8335 53.7983 53.0046C53.7983 53.1024 53.7983 54.3857 53.7983 54.3857C53.2605 54.3857 52.5639 54.2635 52.0994 54.6057C51.8305 54.8013 51.6961 55.119 51.635 55.449C51.525 55.999 51.5738 56.5857 51.5738 57.1479C51.5738 57.6124 51.5738 58.0768 51.5738 58.5413C51.5738 58.5657 51.5738 58.9202 51.5738 58.9202H49.1416V52.3568H51.1338L51.2927 53.3224C51.2805 53.2612 51.4761 53.0535 51.5127 53.0046C51.7083 52.7479 51.9283 52.5401 52.185 52.3935Z" fill="#414141"/>
</svg>
