<svg width="150" height="190" viewBox="0 0 150 190" fill="none" xmlns="http://www.w3.org/2000/svg">
<path d="M74.9416 0.896973C68.0599 0.896973 62.4344 6.23916 62.4344 12.8907V26.4033C62.4344 33.0025 68.0053 38.397 74.9416 38.397C81.8232 38.397 87.4487 33.0548 87.4487 26.4033V12.8907C87.4487 6.23916 81.8778 0.896973 74.9416 0.896973Z" fill="#414141"/>
<path d="M29.0142 15.2489C23.4434 19.1246 22.1872 26.6142 26.2288 31.9564L34.5305 42.9026C38.5721 48.2448 46.3822 49.4494 51.9531 45.5737C57.5239 41.698 58.7801 34.2085 54.7385 28.8663L46.4368 17.92C42.3952 12.5778 34.5851 11.3732 29.0142 15.2489Z" fill="#414141"/>
<path d="M0.612293 52.7471C-1.51774 59.032 2.08693 65.7883 8.64088 67.8309L22.0765 72.0209C28.6304 74.0635 35.6759 70.6067 37.806 64.3218C39.936 58.0369 36.3313 51.2806 29.7774 49.238L16.3418 45.0481C9.78783 43.0578 2.74233 46.4622 0.612293 52.7471Z" fill="#414141"/>
<path d="M0.66991 99.0994C2.79995 105.384 9.84544 108.841 16.3994 106.798L29.835 102.609C36.389 100.566 39.9936 93.8096 37.8636 87.5247C35.7336 81.2398 28.6881 77.7831 22.1341 79.8257L8.6985 84.0156C2.14455 86.0582 -1.46012 92.8145 0.66991 99.0994Z" fill="#414141"/>
<path d="M29.1216 136.599C34.6924 140.475 42.5026 139.322 46.5442 133.928L54.8459 122.982C58.8875 117.639 57.6859 110.15 52.0604 106.274C46.4896 102.398 38.6794 103.551 34.6378 108.945L26.3362 119.891C22.2945 125.234 23.4961 132.723 29.1216 136.599Z" fill="#414141"/>
<path d="M75.0528 150.897C81.9344 150.897 87.5599 145.555 87.5599 138.903V125.391C87.5599 118.792 81.9891 113.397 75.0528 113.397C68.1711 113.397 62.5457 118.739 62.5457 125.391V138.903C62.6003 145.502 68.1711 150.897 75.0528 150.897Z" fill="#414141"/>
<path d="M121.039 136.543C126.61 132.667 127.866 125.178 123.824 119.836L115.523 108.889C111.481 103.547 103.671 102.342 98.1002 106.218C92.5293 110.094 91.2731 117.583 95.3147 122.926L103.616 133.872C107.658 139.214 115.468 140.419 121.039 136.543Z" fill="#414141"/>
<path d="M149.388 98.9935C151.518 92.7086 147.913 85.9523 141.359 83.9097L127.924 79.7197C121.37 77.6771 114.324 81.1338 112.194 87.4187C110.064 93.7037 113.669 100.46 120.223 102.503L133.659 106.693C140.267 108.735 147.258 105.278 149.388 98.9935Z" fill="#414141"/>
<path d="M149.388 52.6443C147.258 46.3594 140.212 42.9027 133.659 44.9453L120.223 49.1353C113.669 51.1779 110.064 57.9342 112.194 64.2191C114.324 70.504 121.37 73.9607 127.924 71.9181L141.359 67.7282C147.913 65.6856 151.518 58.9293 149.388 52.6443Z" fill="#414141"/>
<path d="M120.935 15.1965C115.364 11.3208 107.554 12.473 103.512 17.8676L95.2107 28.7614C91.1691 34.1036 92.3706 41.5932 97.9961 45.4689C103.567 49.3446 111.377 48.1923 115.419 42.7978L123.72 31.8515C127.762 26.5617 126.506 19.0722 120.935 15.1965Z" fill="#414141"/>
<path d="M23.531 164.578V170.769H15.596V188.759H7.86629V170.769H-0.000244141V164.578H23.531Z" fill="#414141"/>
<path d="M48.8747 164.578V170.769H40.9398V188.759H33.21V170.769H25.3435V164.578H48.8747Z" fill="#414141"/>
<path d="M62.809 187.733C60.8253 186.673 59.2178 185.168 58.0549 183.287C56.892 181.406 56.6526 178.909 56.6526 176.549C56.6526 174.189 56.892 171.693 58.0549 169.811C59.2178 167.93 60.8253 166.46 62.809 165.399C64.7927 164.339 67.3579 164.134 69.7179 164.134C72.112 164.134 74.643 164.305 76.6267 165.399C78.6105 166.46 80.1838 167.93 81.3467 169.811C82.5095 171.693 82.749 174.189 82.749 176.549C82.749 178.909 82.5095 181.406 81.3467 183.287C80.1838 185.168 78.6105 186.673 76.6267 187.733C74.643 188.794 72.112 188.999 69.7521 188.999C67.3237 188.999 64.7927 188.794 62.809 187.733ZM73.3775 181.474C74.2326 180.517 74.6772 178.157 74.6772 176.515C74.6772 174.839 74.2326 172.513 73.3775 171.556C72.5225 170.598 71.2912 170.119 69.7179 170.119C68.1104 170.119 66.8791 170.598 66.024 171.556C65.169 172.513 64.7243 174.873 64.7243 176.515C64.7243 178.157 65.169 180.483 66.024 181.474C66.8791 182.432 68.1104 182.911 69.7179 182.911C71.2912 182.945 72.5225 182.466 73.3775 181.474Z" fill="#414141"/>
<path d="M96.1216 167.52C95.848 167.52 95.5743 167.554 95.3349 167.622C94.1378 167.93 94.0352 168.99 94.1378 170.051H97.3187V175.147H94.2062V188.759H86.8527V175.147H84.869V170.051H87.1948C87.229 167.622 87.571 165.57 89.0417 164.236C89.4863 163.826 90.0336 163.518 90.5808 163.313C91.1622 163.107 91.7779 163.005 92.3935 162.936C93.0092 162.868 93.659 162.902 94.2747 162.936C95.0613 163.005 95.848 163.107 96.6346 163.244C96.9082 163.313 97.1818 163.347 97.4555 163.415C97.5239 163.415 97.5923 163.45 97.6607 163.45V167.485C97.1476 167.485 96.6346 167.485 96.1216 167.52Z" fill="#414141"/>
<path d="M109.633 167.52C109.359 167.52 109.085 167.554 108.846 167.622C107.649 167.93 107.546 168.99 107.649 170.051H110.83V175.147H107.717V188.759H100.364V175.147H98.38V170.051H100.706C100.74 167.622 101.082 165.57 102.553 164.236C102.997 163.826 103.545 163.518 104.092 163.313C104.673 163.107 105.289 163.005 105.905 162.936C106.52 162.868 107.17 162.902 107.786 162.936C108.572 163.005 109.359 163.107 110.146 163.244C110.419 163.313 110.693 163.347 110.966 163.415C111.035 163.415 111.103 163.45 111.172 163.45V167.485C110.659 167.485 110.146 167.485 109.633 167.52Z" fill="#414141"/>
<path d="M133.541 180.724H119.86C119.689 181.852 120.031 183.015 120.886 183.768C121.741 184.52 122.938 184.725 124.032 184.52C125.913 184.281 126.734 183.323 126.7 181.715H133.404C133.37 182.605 133.37 183.733 133.028 184.554C132.275 186.367 130.599 187.427 128.889 188.18C127.453 188.795 124.887 189.103 123.177 189.103C121.125 189.103 119.312 188.727 117.739 187.94C116.132 187.154 114.9 186.025 114.011 184.554C112.575 182.16 112.335 179.013 113.088 176.346C113.293 175.593 113.601 174.875 114.011 174.225C115.311 172.07 117.5 170.634 119.928 170.052C121.946 169.539 124.067 169.539 126.084 169.984C128.684 170.566 131.044 171.934 132.446 174.259C132.857 174.978 133.199 175.73 133.404 176.551C133.609 177.406 133.712 178.329 133.712 179.219C133.643 179.766 133.609 180.279 133.541 180.724ZM126.461 177.474C126.563 177.474 126.461 176.79 126.461 176.722C126.324 175.867 125.742 175.114 125.024 174.67C124.443 174.328 123.793 174.191 123.143 174.191C120.715 174.294 119.825 176.14 119.654 177.474H126.461Z" fill="#414141"/>
<path d="M145.476 170.394C146.468 169.847 147.597 169.608 148.828 169.813C149.067 169.847 149.786 169.916 149.957 170.155C150.025 170.258 149.991 170.531 149.991 170.668C149.991 171.147 149.991 171.626 149.991 172.105C149.991 172.378 149.991 175.969 149.991 175.969C148.486 175.969 146.536 175.627 145.237 176.585C144.484 177.132 144.108 178.022 143.937 178.945C143.629 180.484 143.766 182.126 143.766 183.699C143.766 184.999 143.766 186.299 143.766 187.598C143.766 187.667 143.766 188.659 143.766 188.659H136.96V170.292H142.535L142.979 172.994C142.945 172.823 143.492 172.241 143.595 172.105C144.142 171.386 144.758 170.805 145.476 170.394Z" fill="#414141"/>
</svg>
