<svg width="24" height="16" viewBox="0 0 24 16" fill="none" xmlns="http://www.w3.org/2000/svg">
<path d="M1.33333 16H16C16.7333 16 17.3333 15.4 17.3333 14.6667C17.3333 13.9333 16.7333 13.3333 16 13.3333H1.33333C0.6 13.3333 0 13.9333 0 14.6667C0 15.4 0.6 16 1.33333 16ZM1.33333 9.33333H12C12.7333 9.33333 13.3333 8.73333 13.3333 8C13.3333 7.26667 12.7333 6.66667 12 6.66667H1.33333C0.6 6.66667 0 7.26667 0 8C0 8.73333 0.6 9.33333 1.33333 9.33333ZM0 1.33333C0 2.06667 0.6 2.66667 1.33333 2.66667H16C16.7333 2.66667 17.3333 2.06667 17.3333 1.33333C17.3333 0.6 16.7333 0 16 0H1.33333C0.6 0 0 0.6 0 1.33333ZM23.0667 11.84L19.2267 8L23.0667 4.16C23.1901 4.03656 23.288 3.89001 23.3548 3.72872C23.4216 3.56744 23.456 3.39457 23.456 3.22C23.456 3.04543 23.4216 2.87256 23.3548 2.71128C23.288 2.54999 23.1901 2.40344 23.0667 2.28C22.9432 2.15656 22.7967 2.05864 22.6354 1.99183C22.4741 1.92502 22.3012 1.89064 22.1267 1.89064C21.9521 1.89064 21.7792 1.92502 21.6179 1.99183C21.4567 2.05864 21.3101 2.15656 21.1867 2.28L16.4 7.06667C16.2764 7.19002 16.1783 7.33654 16.1114 7.49783C16.0445 7.65913 16.0101 7.83204 16.0101 8.00667C16.0101 8.18129 16.0445 8.3542 16.1114 8.5155C16.1783 8.6768 16.2764 8.82332 16.4 8.94667L21.1867 13.7333C21.7067 14.2533 22.5467 14.2533 23.0667 13.7333C23.5733 13.2133 23.5867 12.36 23.0667 11.84Z" fill="#212832"/>
</svg>
