<svg width="20" height="20" viewBox="0 0 20 20" fill="none" xmlns="http://www.w3.org/2000/svg">
<path d="M10 12.0832C11.1506 12.0832 12.0833 11.1504 12.0833 9.99984C12.0833 8.84924 11.1506 7.9165 10 7.9165C8.84941 7.9165 7.91667 8.84924 7.91667 9.99984C7.91667 11.1504 8.84941 12.0832 10 12.0832Z" stroke="#292D32" stroke-miterlimit="10" stroke-linecap="round" stroke-linejoin="round"/>
<path d="M15.4167 7.9165V12.0832" stroke="#292D32" stroke-miterlimit="10" stroke-linecap="round" stroke-linejoin="round"/>
<path d="M7.5 14.9998C7.5 15.6248 7.32501 16.2165 7.01668 16.7165C6.44168 17.6832 5.38333 18.3332 4.16667 18.3332C2.95 18.3332 1.89165 17.6832 1.31665 16.7165C1.00832 16.2165 0.833332 15.6248 0.833332 14.9998C0.833332 13.1582 2.325 11.6665 4.16667 11.6665C6.00833 11.6665 7.5 13.1582 7.5 14.9998Z" stroke="#292D32" stroke-miterlimit="10" stroke-linecap="round" stroke-linejoin="round"/>
<path d="M5.40975 14.9829H2.92643" stroke="#292D32" stroke-miterlimit="10" stroke-linecap="round" stroke-linejoin="round"/>
<path d="M4.16666 13.7661V16.2578" stroke="#292D32" stroke-miterlimit="10" stroke-linecap="round" stroke-linejoin="round"/>
<path d="M1.66667 12.7502V7.50016C1.66667 4.5835 3.33333 3.3335 5.83333 3.3335H14.1667C16.6667 3.3335 18.3333 4.5835 18.3333 7.50016V12.5002C18.3333 15.4168 16.6667 16.6668 14.1667 16.6668H7.08333" stroke="#292D32" stroke-miterlimit="10" stroke-linecap="round" stroke-linejoin="round"/>
</svg>
