<svg width="35" height="35" viewBox="0 0 35 35" fill="none" xmlns="http://www.w3.org/2000/svg">
<path d="M26.25 10.4415C26.1625 10.4269 26.0604 10.4269 25.9729 10.4415C23.9604 10.3686 22.3563 8.72067 22.3563 6.67901C22.3563 4.59359 24.0333 2.9165 26.1188 2.9165C28.2042 2.9165 29.8813 4.60817 29.8813 6.67901C29.8667 8.72067 28.2625 10.3686 26.25 10.4415Z" stroke="#414141" stroke-width="3" stroke-linecap="round" stroke-linejoin="round"/>
<path d="M24.7479 21.0584C26.7458 21.3938 28.9479 21.0438 30.4938 20.0084C32.55 18.6376 32.55 16.3917 30.4938 15.0209C28.9333 13.9855 26.7021 13.6355 24.7042 13.9855" stroke="#414141" stroke-width="3" stroke-linecap="round" stroke-linejoin="round"/>
<path d="M8.7062 10.4415C8.7937 10.4269 8.89578 10.4269 8.98328 10.4415C10.9958 10.3686 12.6 8.72067 12.6 6.67901C12.6 4.59359 10.9229 2.9165 8.83745 2.9165C6.75204 2.9165 5.07495 4.60817 5.07495 6.67901C5.08953 8.72067 6.6937 10.3686 8.7062 10.4415Z" stroke="#414141" stroke-width="3" stroke-linecap="round" stroke-linejoin="round"/>
<path d="M10.2083 21.0584C8.21039 21.3938 6.00831 21.0438 4.46248 20.0084C2.40623 18.6376 2.40623 16.3917 4.46248 15.0209C6.02289 13.9855 8.25414 13.6355 10.2521 13.9855" stroke="#414141" stroke-width="3" stroke-linecap="round" stroke-linejoin="round"/>
<path d="M17.5 21.3356C17.4125 21.321 17.3104 21.321 17.2229 21.3356C15.2104 21.2626 13.6063 19.6147 13.6063 17.573C13.6063 15.4876 15.2833 13.8105 17.3688 13.8105C19.4542 13.8105 21.1313 15.5022 21.1313 17.573C21.1167 19.6147 19.5125 21.2772 17.5 21.3356Z" stroke="#414141" stroke-width="3" stroke-linecap="round" stroke-linejoin="round"/>
<path d="M13.2562 25.9294C11.2 27.3002 11.2 29.5461 13.2562 30.9169C15.5896 32.4773 19.4104 32.4773 21.7437 30.9169C23.8 29.5461 23.8 27.3002 21.7437 25.9294C19.425 24.3836 15.5896 24.3836 13.2562 25.9294Z" stroke="#414141" stroke-width="3" stroke-linecap="round" stroke-linejoin="round"/>
</svg>
