<svg width="21" height="20" viewBox="0 0 21 20" fill="none" xmlns="http://www.w3.org/2000/svg">
<path d="M15 5.96651C14.95 5.95817 14.8917 5.95817 14.8417 5.96651C13.6917 5.92484 12.775 4.98317 12.775 3.81651C12.775 2.62484 13.7333 1.6665 14.925 1.6665C16.1167 1.6665 17.075 2.63317 17.075 3.81651C17.0667 4.98317 16.15 5.92484 15 5.96651Z" stroke="#292D32" stroke-linecap="round" stroke-linejoin="round"/>
<path d="M14.1417 12.0333C15.2833 12.225 16.5417 12.025 17.425 11.4333C18.6 10.65 18.6 9.36664 17.425 8.58331C16.5333 7.99164 15.2583 7.79163 14.1167 7.99163" stroke="#292D32" stroke-linecap="round" stroke-linejoin="round"/>
<path d="M4.975 5.96651C5.025 5.95817 5.08333 5.95817 5.13333 5.96651C6.28333 5.92484 7.2 4.98317 7.2 3.81651C7.2 2.62484 6.24167 1.6665 5.05 1.6665C3.85833 1.6665 2.9 2.63317 2.9 3.81651C2.90833 4.98317 3.825 5.92484 4.975 5.96651Z" stroke="#292D32" stroke-linecap="round" stroke-linejoin="round"/>
<path d="M5.83333 12.0333C4.69167 12.225 3.43333 12.025 2.55 11.4333C1.375 10.65 1.375 9.36664 2.55 8.58331C3.44167 7.99164 4.71667 7.79163 5.85833 7.99163" stroke="#292D32" stroke-linecap="round" stroke-linejoin="round"/>
<path d="M10 12.1916C9.95 12.1833 9.89167 12.1833 9.84167 12.1916C8.69167 12.1499 7.775 11.2083 7.775 10.0416C7.775 8.84994 8.73333 7.8916 9.925 7.8916C11.1167 7.8916 12.075 8.85827 12.075 10.0416C12.0667 11.2083 11.15 12.1583 10 12.1916Z" stroke="#292D32" stroke-linecap="round" stroke-linejoin="round"/>
<path d="M12.425 14.8168C11.1 13.9335 8.90834 13.9335 7.575 14.8168C6.4 15.6001 6.4 16.8835 7.575 17.6668C8.33333 18.1388 10.365 18.7997 12.425 17.6668" stroke="#292D32" stroke-linecap="round" stroke-linejoin="round"/>
<path d="M17.0833 17.1875C17.6011 17.1875 18.0208 16.7678 18.0208 16.25C18.0208 15.7322 17.6011 15.3125 17.0833 15.3125C16.5656 15.3125 16.1458 15.7322 16.1458 16.25C16.1458 16.7678 16.5656 17.1875 17.0833 17.1875Z" stroke="#292D32" stroke-width="0.8" stroke-miterlimit="10" stroke-linecap="round" stroke-linejoin="round"/>
<path d="M13.9582 16.5249V15.9749C13.9582 15.6499 14.2239 15.3812 14.552 15.3812C15.1176 15.3812 15.3489 14.9812 15.0645 14.4906C14.902 14.2093 14.9989 13.8437 15.2832 13.6812L15.8239 13.3718C16.0707 13.2249 16.3895 13.3124 16.5364 13.5593L16.5707 13.6187C16.852 14.1093 17.3145 14.1093 17.5989 13.6187L17.6332 13.5593C17.7801 13.3124 18.0989 13.2249 18.3457 13.3718L18.8864 13.6812C19.1707 13.8437 19.2676 14.2093 19.1051 14.4906C18.8207 14.9812 19.052 15.3812 19.6176 15.3812C19.9426 15.3812 20.2114 15.6468 20.2114 15.9749V16.5249C20.2114 16.8499 19.9457 17.1187 19.6176 17.1187C19.052 17.1187 18.8207 17.5187 19.1051 18.0093C19.2676 18.2937 19.1707 18.6562 18.8864 18.8187L18.3457 19.1281C18.0989 19.2749 17.7801 19.1875 17.6332 18.9406L17.5989 18.8812C17.3176 18.3906 16.8551 18.3906 16.5707 18.8812L16.5364 18.9406C16.3895 19.1875 16.0707 19.2749 15.8239 19.1281L15.2832 18.8187C14.9989 18.6562 14.902 18.2906 15.0645 18.0093C15.3489 17.5187 15.1176 17.1187 14.552 17.1187C14.2239 17.1187 13.9582 16.8499 13.9582 16.5249Z" stroke="#292D32" stroke-width="0.8" stroke-miterlimit="10" stroke-linecap="round" stroke-linejoin="round"/>
</svg>
