<svg width="20" height="20" viewBox="0 0 20 20" fill="none" xmlns="http://www.w3.org/2000/svg">
<path d="M12.25 17.5H7.75C4 17.5 2.5 16 2.5 12.25V7.75C2.5 4 4 2.5 7.75 2.5H12.25C16 2.5 17.5 4 17.5 7.75V12.25M13.7333 16.2333L15 17.5L17.5333 14.9667" stroke="#292D32" stroke-linecap="round" stroke-linejoin="round"/>
<path d="M6.964 11.148H5.218L4.918 12H4.204L5.698 7.824H6.49L7.984 12H7.264L6.964 11.148ZM6.772 10.59L6.094 8.652L5.41 10.59H6.772ZM8.40559 10.332C8.40559 10 8.47359 9.706 8.60959 9.45C8.74959 9.194 8.93759 8.996 9.17359 8.856C9.41359 8.712 9.67959 8.64 9.97159 8.64C10.1876 8.64 10.3996 8.688 10.6076 8.784C10.8196 8.876 10.9876 9 11.1116 9.156V7.56H11.8016V12H11.1116V11.502C10.9996 11.662 10.8436 11.794 10.6436 11.898C10.4476 12.002 10.2216 12.054 9.96559 12.054C9.67759 12.054 9.41359 11.982 9.17359 11.838C8.93759 11.69 8.74959 11.486 8.60959 11.226C8.47359 10.962 8.40559 10.664 8.40559 10.332ZM11.1116 10.344C11.1116 10.116 11.0636 9.918 10.9676 9.75C10.8756 9.582 10.7536 9.454 10.6016 9.366C10.4496 9.278 10.2856 9.234 10.1096 9.234C9.93359 9.234 9.76959 9.278 9.61759 9.366C9.46559 9.45 9.34159 9.576 9.24559 9.744C9.15359 9.908 9.10759 10.104 9.10759 10.332C9.10759 10.56 9.15359 10.76 9.24559 10.932C9.34159 11.104 9.46559 11.236 9.61759 11.328C9.77359 11.416 9.93759 11.46 10.1096 11.46C10.2856 11.46 10.4496 11.416 10.6016 11.328C10.7536 11.24 10.8756 11.112 10.9676 10.944C11.0636 10.772 11.1116 10.572 11.1116 10.344ZM13.9 12.054C13.64 12.054 13.406 12.008 13.198 11.916C12.994 11.82 12.832 11.692 12.712 11.532C12.592 11.368 12.528 11.186 12.52 10.986H13.228C13.24 11.126 13.306 11.244 13.426 11.34C13.55 11.432 13.704 11.478 13.888 11.478C14.08 11.478 14.228 11.442 14.332 11.37C14.44 11.294 14.494 11.198 14.494 11.082C14.494 10.958 14.434 10.866 14.314 10.806C14.198 10.746 14.012 10.68 13.756 10.608C13.508 10.54 13.306 10.474 13.15 10.41C12.994 10.346 12.858 10.248 12.742 10.116C12.63 9.984 12.574 9.81 12.574 9.594C12.574 9.418 12.626 9.258 12.73 9.114C12.834 8.966 12.982 8.85 13.174 8.766C13.37 8.682 13.594 8.64 13.846 8.64C14.222 8.64 14.524 8.736 14.752 8.928C14.984 9.116 15.108 9.374 15.124 9.702H14.44C14.428 9.554 14.368 9.436 14.26 9.348C14.152 9.26 14.006 9.216 13.822 9.216C13.642 9.216 13.504 9.25 13.408 9.318C13.312 9.386 13.264 9.476 13.264 9.588C13.264 9.676 13.296 9.75 13.36 9.81C13.424 9.87 13.502 9.918 13.594 9.954C13.686 9.986 13.822 10.028 14.002 10.08C14.242 10.144 14.438 10.21 14.59 10.278C14.746 10.342 14.88 10.438 14.992 10.566C15.104 10.694 15.162 10.864 15.166 11.076C15.166 11.264 15.114 11.432 15.01 11.58C14.906 11.728 14.758 11.844 14.566 11.928C14.378 12.012 14.156 12.054 13.9 12.054Z" fill="black"/>
</svg>
